<svg xmlns="http://www.w3.org/2000/svg" xmlns:xlink="http://www.w3.org/1999/xlink" width="46" height="43" viewBox="0 0 46 43">
    <defs>
        <path id="prefix__a" d="M0 0.389L45.898 0.389 45.898 42.872 0 42.872z"/>
    </defs>
    <g fill="none" fill-rule="evenodd">
        <path fill="#00EEC7" d="M25.305 23.89s.443-3.827-4.242-7.319c-4.791-3.57-9.655-5.104-9.655-5.104s15.893 1.424 17.05-3.483c.777-3.3-4.846-5.646-4.846-5.646s7.549 2.44 8.258 4.257c.711 1.818-1.477 15.673-1.477 15.673l-5.088 1.623z" transform="translate(0 -1)"/>
        <path fill="#00EEC7" d="M30.345 26.774c.789-1.876 1.28-6.934 1.28-6.934s2.809.193 3.96 1.17c1.15.976 1.928 4.998 1.787 6.473-.14 1.475-1.774 6.029-3.585 7.922-1.81 1.893-5.008 4.195-9.018 4.407-4.01.21-11.14-.77-12.469-1.467-1.33-.695-1.032-2.861 1.7-2.44 7.508 1.154 13.212-1.682 16.345-9.13M4.953 30.29s-.368-2.838 1.625-4.828c1.994-1.99 3.46-2.861 3.46-2.861s-.524-1.916-1.916-1.598c-1.391.317-4.154 1.596-4.304 2.795-.15 1.2 1.135 6.493 1.135 6.493" transform="translate(0 -1)"/>
        <g transform="translate(0 -1) translate(0 .74)">
            <mask id="prefix__b" fill="#fff">
                <use xlink:href="#prefix__a"/>
            </mask>
            <path fill="#172733" d="M44.774 40.194c.098-.672-.644-1.734-1.717-1.617-.9.098-1.1.885-1.161 1.592-.064.749.447 1.318 1.61 1.419.87.075 1.171-.721 1.268-1.394m-7.314-4.706c-1.27-.445-1.92 2.306-.445 3.153 1.04.622 2.098 1.215 3.166 1.785.354.188.608.143.537-.366-.071-.507.205-1.781 1.112-2.354.435-.334-4.024-2.098-4.37-2.218M9.93 25.138c.04 1.01.772 1.597 1.693 2.098.923.5 3.919 2.24 9.33 2.216 5.411-.025 8.72-3.74 8.537-6.437.066-.305-.105-.463-.415-.386-.781.198-3.955 2.304-9.238 2.13-5.285-.173-7.437-1.665-8.985-2.462-.452-.233-.582.327-.74.828-.206.657-.22 1.003-.182 2.012m18.647 11.826c3.477-1.774 4.77-3.5 6.473-5.802 1.704-2.302 2.269-8.317.621-9.7-.662-.555-.096.574-.121 1.626-.047 2.052-.936 8.36-7.593 12.671-1.178.763-3.53 1.19-3.965.84-.315-.25 2.12-1.43 2.63-1.679 2.446-1.2 3.946-3.344 5.458-5.458.766-1.072 1.149-2.315 1.585-3.545.611-1.724.802-3.42.003-5.11-.27-.574-.904-.799-1.492-.84-.395-.027-.544.845-.65 2.195-.108 1.35-.121 3.195-.277 3.632-.584 1.628-3.783 4.835-9.681 5.46-5.897.624-12.367-2.878-12.964-4.437-.597-1.559-.148-4.58-.193-5.347-.065-1.097-.877-.644-1.098-.487-1.104.782-2.218 1.266-2.801 2.61-.574 1.32.02 3.493.812 5.18.794 1.687 2.433 2.743 2.15 3.119-.283.377-.698.206-1.657-.511-.96-.719-2.999-2.74-2.93-6.332.069-3.592 3.12-5.414 4.56-5.504.376-.024.625-.207.541-.652-.078-.41.008-.96-.694-.804-.703.156-2.298.844-3.09 1.534-.796.692-1.523 1.414-2.031 2.397-.508.987-.636 1.985-.73 3.033-.127 1.453.486 2.739.948 4.051.368 1.044 2.297 4.652 7.57 6.615 5.272 1.963 13.917 3.644 18.616 1.245m-7.612-25.945c4.44-.055 6.217-.672 9.092-1.897.49-.21 1.022-.722.976-1.33-.068-.905-.395-1.725-1.064-2.447-1.171-1.265-2.74-1.772-4.252-2.403-1.081-.451-2.266-.381-3.394-.599-1.56-.3-3.149-.468-4.727-.395-2.493.115-4.864.77-7.115 1.86-1.075.52-2.474 2.158-2.276 3.79.198 1.634 2 9.054 2.102 10.564.031.458-.034 1.535.436 1.884.773.572 1.458 1.23 2.412 1.61 1.003.401 2.032.824 3.048 1.038 1.857.39 4.017.631 5.95.367 5.56-.93 7.118-2.503 7.396-3.753.086-.387.925-6.21 1.421-8.53.04-.184.134-.422-.77-.067-.905.355-5.66 1.863-9.602 1.843-3.942-.018-7.516-.88-9.54-1.568-.274-.093-.626-.331-.511-.718.111-.376.423-.413.786-.29.404.135 5.191 1.096 9.632 1.04M33.02 6.656c.17 2.407-.377 4.752-.625 7.124-.153 1.478-.775 4.3-.255 4.322 4.577.184 6.21 4.549 6.124 7.21-.083 2.662-1.175 5.08-2.696 7.296-.294.431 3.529 2.028 4.869 2.717 1.341.69 2.776 1.357 4.158 2.026 1.38.668 1.376 1.74 1.252 2.846-.045.401-.16.798-.277 1.188-.394 1.31-2.078 1.849-3.325 1.235-2.109-1.038-4.954-2.092-7.358-3.24-2.404-1.149-3.809-2.038-3.926-1.962-3.265 2.088-5.722 2.683-11.745 2.301-6.239-.393-12.677-3.195-15.304-5.644-2.626-2.45-3.543-4.406-3.868-7.779-.5-5.217 3.31-7.58 4.523-8.482 1.696-1.197 3.535-.902 3.403-1.515-.383-1.777-1.588-6.71-1.736-7.415-.335-1.596-.108-3.15.872-4.45C7.712 3.63 9.846.847 17.79.427c7.943-.42 12.93 2.669 13.687 3.453 1.3 1.345 1.472 2.372 1.542 2.775" mask="url(#prefix__b)"/>
        </g>
        <path fill="#172733" d="M39.103 20.176c.002-.452 5.827-2.397 6.295-2.188.47.209.375.69.006.783-.885.221-6.305 1.856-6.301 1.405M35.908 10.722c.22-.381.755-.538 1.055-.363.376.217-.043.567-.19.827-.477.841-1.252 2.856-1.74 2.833-.49-.023.371-2.428.875-3.297M1.912 40.865c-.56.079-1.032-.177-1.055-.813-.04-1.098.294-2.045 1.6-2.19.958-.105 1.18.705 1.094 1.304-.114.801-.378 1.725-1.639 1.7M39.583 15.15c-.401-.218 2.414-2.977 3.805-3.83.256-.158.527-.576.832-.239.276.307-.004.6-.305.815-1.332.945-3.93 3.47-4.332 3.253M36.696 17.813c-.451-.044-.926-.42-.952-.947-.013-.265-.04-.79.51-.758 1.278.021.917 1.752.442 1.705M6.054 41.087c-.086-.461.132-1.063.81-1.063.745.001 1.01.482 1.074 1.066.07.642-.533 1.194-.931 1.167-.528-.036-.867-.708-.953-1.17M10.464 33.938c1.031.524 2.814 1.252 4.334 1.591 1.05.235 3.824.825 4.533.947.71.12.678.34.665.477-.025.257-.676.314-.98.353-.856.112-5.094-.84-6.382-1.235-1.23-.377-2.442-.888-3.4-1.811-.171-.166-.274-.372-.203-.6.072-.23.402-.246 1.433.278" transform="translate(0 -1)"/>
    </g>
</svg>
