<svg xmlns="http://www.w3.org/2000/svg" xmlns:xlink="http://www.w3.org/1999/xlink" width="28" height="50" viewBox="0 0 28 50">
    <defs>
        <path id="prefix__a" d="M0 0.243L27.948 0.243 27.948 47.478 0 47.478z"/>
        <path id="prefix__c" d="M0.593 0.197L1.713 0.197 1.713 1.602 0.593 1.602z"/>
    </defs>
    <g fill="none" fill-rule="evenodd">
        <path fill="#FFF" d="M14.304 14.696c3.373 0 12.214 2.46 11.836 3.994-.38 1.534-3.781 9.288-4.847 10.216-.71.618-3.04 3.43-6.989 8.436-3.058-2.607-5.81-5.844-8.254-9.711C2.383 21.83.753 20.07 1.19 18.69c.436-1.381 9.743-3.995 13.115-3.995zM13.674 43.06c4.644.362 5.466.588 6.382 2.195.916 1.608-.755 3.896-5.696 4.487-4.94.592-8.247-1.64-8.247-3.34 0-1.702 2.918-3.703 7.561-3.342z" transform="translate(0 -1)"/>
        <path fill="#00F0C9" d="M17.965 10.47c.282-.993 1.182-2.994 2.04-2.747.859.245 1.356 2.027.902 3.214-.453 1.185-1.876 3.003-2.679 2.794-.8-.21-.545-2.269-.263-3.261M15.935 36.317S12.12 33.409 9.6 28.969c-2.52-4.44-2.685-4.543-1.31-4.36 1.375.182 5.749 1.195 10.541.271 4.793-.923 6.376-1.403 6.376-1.403l-9.27 12.84z" transform="translate(0 -1)"/>
        <g transform="translate(0 -1) translate(0 3.195)">
            <mask id="prefix__b" fill="#fff">
                <use xlink:href="#prefix__a"/>
            </mask>
            <path fill="#172733" d="M17.221 6.975c-.19 1.125-.01 2.372.95 2.596.96.225 1.626-.828 1.904-2.092.277-1.264-.1-2.289-.739-2.421-.638-.132-1.924.792-2.115 1.917M5.73 21.63c-.408-.08.47 1.641.848 2.235 1.669 2.628 3.144 5.354 5.498 7.537 1.2 1.113 2.043 1.098 3.035.27 3.09-2.58 8.523-10.66 7.639-10.23-2.103 1.018-5.71 1.553-9.091 1.476-3.383-.078-6.985-1.103-7.929-1.288m-1.156-7.522c-.885.39-2.809 1.097-2.757 1.726.051.63.858 1.871 3.292 3.334 1.21.728 5.053 1.724 9.063 1.665 4.054-.059 8.28-1.183 10.292-2.384.566-.418 2.042-1.898-.973-.73-3.015 1.17-6.634 1.475-10.034 1.403-2.402-.052-4.838-.12-7.16-.922-.562-.193-.805-.65-.756-1.208.011-.123.403-.319.601-.299 1.19.12 2.39.223 3.56.458 4.259.853 8.477.718 12.643-.496.818-.237 1.718-.612 2.06-1.442.093-.225-.64-.96-1.122-1.224-.806-.44-1.697-.751-2.583-1.008-3.298-.953-3.509.082-4.593 3.575-.002.24-.606.52-.827-.033-.221-.554.548-2.486.936-3.72.098-.315.02-.442-.541-.568-1.71-.382-7.946.476-11.1 1.873m7.674 24.36c.163-1.652.297-3.099-.87-4.904-1.963-3.028-9.034-12.92-10.896-16.54-1.097-2.134-.448-2.825 3.255-4.39 3.702-1.564 8.148-2.013 12.4-1.761.21.012.515.015.616-.11.101-.125-.107-.417-.19-.603-1.106-2.511-1.224-4.333 1.037-5.936.87-.616 2.26-1.185 2.949-2.7.689-1.513 1.784-1.863.96-.079-1.004 2.178-.213 3.192.096 5.21.244 1.6-1.332 3.33-2.846 4.161-.06.033-.117.074-.176.111.096.059.184.155.287.172 2.082.347 3.992 1.041 5.933 1.96 1.06.502 2.857 1.33 3.118 2.29.537 1.982-6.925 12.304-8.992 15.493-2.065 3.188-3.702 5.653-4.04 10.454-.105 1.495-2.174 2.573-2.313.408-.177-2.73-5.292-.481-5.35 1.091-.055 1.575 1.64 2.748 3.29 2.896 2.036.182 8.086-.272 8.996-2.32.913-2.056-2.865-2.6-2.566-3.171.259-.49 4.45.473 4.818 2.062.322 1.391-.8 2.556-1.944 3.34-1.6 1.098-8.535 3.133-12.345.81-1.366-.834-2.344-2.093-2.026-3.77.317-1.661 1.84-2.858 6.799-4.174" mask="url(#prefix__b)"/>
        </g>
        <path fill="#172733" d="M4.86 12.94c.376-.672 3.826-1.927 5.544-1.802 1.718.126 1.79 1.143.67 1.182-1.12.038-3.99.617-5.067 1.046-1.078.432-1.523.246-1.147-.427M5.73 37.866c.4-.13.656.126.812.476.449.995.011 1.414-.892 1.582-.68.127-.965-.444-.92-.874.06-.57.601-1.053 1-1.184M.651 14.826c-.028-.644.547-1.104 1.14-1.259.467-.123 1.175-.086 1.165.607-.01.773-2.276 1.322-2.305.652M3.14 43.68c.022.281-.078 1.23-.833 1.326-.382.05-.639-.376-.619-.731.035-.595.287-1.136.958-1.244.444-.071.47.368.494.649M23.376 43.142c-.6.112-.833-.408-.905-.917-.073-.514.298-.738.718-.763.56-.033.786 1.567.187 1.68M25.376 44.923c.015.569-.16.899-.563.904-.53.007-.648-.422-.532-.859.117-.435 1.07-.346 1.095-.045" transform="translate(0 -1)"/>
        <g transform="translate(0 -1) translate(21.28 .934)">
            <mask id="prefix__d" fill="#fff">
                <use xlink:href="#prefix__c"/>
            </mask>
            <path fill="#172733" d="M.95 1.578C.353 1.346.52.17 1.335.197c.343.011.212 1.615-.385 1.381" mask="url(#prefix__d)"/>
        </g>
    </g>
</svg>
