<svg xmlns="http://www.w3.org/2000/svg" xmlns:xlink="http://www.w3.org/1999/xlink" width="33" height="46" viewBox="0 0 33 46">
    <defs>
        <path id="prefix__a" d="M0.271 0.585L28.081 0.585 28.081 45.854 0.271 45.854z"/>
        <path id="prefix__c" d="M0 0.711L2.629 0.711 2.629 3.379 0 3.379z"/>
    </defs>
    <g fill="none" fill-rule="evenodd">
        <path fill="#00F0C9" d="M13.27 45.495c-2.13.42-4.355-1.68-4.54-5.51-.185-3.827-.324-4.901.046-5.134.371-.234 2.41.187 3.29.84.882.654 2.457 1.307 3.615.793 1.158-.513 1.437 2.381 1.437 3.595 0 1.214-.093 3.267-.093 3.267s-1.622 1.728-3.754 2.149M8.591 30.743l.231-6.116s1.484 1.027 3.847.886c2.363-.14 3.754-.466 3.754-.466l-.047 3.875s-.927 1.634-2.734 1.914c-1.806.28-2.595-.374-3.29-.467-.694-.093-1.76.374-1.76.374M17.766 31.863s5.16 2.35 8.249-.374c1.445-1.272 1.761-4.154 1.761-4.154l3.058-.607s1.16 1.213 1.113 3.08c-.047 1.868.139 5.042-.047 5.93-.184.887-1.76 1.727-4.819 2.24-3.059.514-7.321.095-8.62-.7-1.297-.793-1.297-4.809-1.297-4.809l.602-.606zM26.525 45.774s1.854-2.52 1.854-4.48v-3.129l2.78-1.027s.603 1.68.557 3.455c-.046 1.773-1.113 3.967-2.689 4.668-1.576.7-2.502.513-2.502.513" transform="translate(0 -1)"/>
        <path fill="#00F0C9" d="M30.695 26.028s-.23.513-1.205.84c-.973.327-1.713.466-1.713.466s.37-2.754-.187-4.715c-.555-1.96-1.991-2.567-2.225-5.088-.23-2.52-.74-14.239-.74-14.239s1.483-.372 1.992.328c.51.7 1.298 5.228 1.623 8.496.324 3.268 1.065 7.003 1.853 8.31.788 1.306 1.298 3.268 1.204 3.874-.092.606-.602 1.728-.602 1.728" transform="translate(0 -1)"/>
        <g transform="translate(0 -1) translate(4.552 .562)">
            <mask id="prefix__b" fill="#fff">
                <use xlink:href="#prefix__a"/>
            </mask>
            <path fill="#172733" d="M10.836 25.074c.076-.396.038-.905-.41-.767-1.503.59-4.996 1.047-8.07-.916-.34-.175-.49 4.444-.519 6.072-.032.257.309-.514 1.46-.843 1.382-.393 3.408.387 5.02-.184 1.612-.57 2.467-2.116 2.52-3.362M1.606 35.28c.28-1 .828-2.452 2.892-2.763 2.526-.38 4.135 3.043 6.38 1.447-.024-1.329-.076-4.936-.076-4.936-.313.358-.857.933-2.258 1.074-1.849.185-4.936-1.347-6.3 1.109-.562 1.099-.889 2.71-.639 4.069m9.585 2.13c-.03-1.005-.073-1.54-.964-1.346-3.193.7-3.906-2.107-5.711-1.98-1.804.126-3.3 5.399-1.71 7.23 1.155 1.324 2.654 1.684 4.068 1.71 1.413.027 3.04-.093 4.194-1.416.676-.774 1.388-.892 1.731-.585.595.71 2.61 2.777 7.417 2.605 4.809-.172 5.425-3.743 5.47-4.581.095-1.738-.088-2.342-.268-2.47-.184-.132-.33.018-.477.08-.813.337-2.465 1.034-5.387 1.106-2.921.072-4.939-.483-6.209-1.027-.18-.078-.535-.308-.552.704-.019 1.012-.017 1.592-.298 2.107-.387.708-1.237-.005-1.304-2.137m9.694-33.9c-.138-1.022-.506-1.059-1.495-1.088-.989-.028-1.788.144-1.845 1.037-.058.893-.118 6.743-.132 7.85-.012 1.107-.318 3.829-.938 5.082-.62 1.254-2.983 4.48-3.432 5.969-.117.388-.211.863.063 1.16 1.245 1.346 2.715 1.552 4.31 1.834 1.598.283 2.465.48 2.45.96-.018.477-2.436.496-4.847.097-.991-.164-1.72-.406-1.956.54-.238.944-.278 5.51-.273 6.353.007 1.328 2.355 2.446 4.91 2.78 2.539.33 7.75-.897 7.96-1.95.1-.496.062-2.854.114-4.649.07-2.408.034-3.804-1.249-3.478-2.319.593-2.839-.183-2.174-.387 2.178-.672 2.947-1.074 2.888-1.735-.058-.659-.175-1.288-.538-2.714-.365-1.426-1.582-3.291-2.153-4.643-.595-1.41-.857-4.171-.946-4.952-.148-1.3-.58-7.048-.717-8.067M.278 32.984c.023-2.347.118-9.025.34-10.787.278-2.174.245-3.446 2.944-4.691 3.017-1.392 7.696-.798 7.794-.183.097.613-.573.78-1.303.778-3.463-.017-7.056.691-7.295 2.206-.24 1.514.965 2.38 3.026 2.839 1.886.42 3.464.382 4.468-.107.785-.38.8-.808 1.06-1.767.261-.96 1.377-2.972 2.15-4.048 1.325-1.843 1.75-3.28 1.814-6.16.064-2.88.303-7.429.44-8.113.301-1.511.821-2.205 3.86-2.358 3.04-.154 3.417 1.896 3.987 7.588.243 2.438.277 4.508.904 6.421.626 1.914 1.85 3.669 2.42 5.043 1.143 2.749 1.238 7.268 1.182 10.968-.056 3.7-.495 9.077-1.01 11.053-.515 1.975-2.923 3.208-4.252 3.682-1.33.475-7.836 1.572-10.633-2.407-.189-.27-.24.273-.768.808-.821.835-1.907 1.246-4.685 1.195-1.348-.024-3.71-.38-4.936-1.823C.482 41.588.223 38.34.278 32.984" mask="url(#prefix__b)"/>
        </g>
        <path fill="#172733" d="M9.98 22.499c-1.35-.474-1.263-1.858-.498-2.14.764-.282.325.267.706.7.522.596 1.878.53 2.822.23.399-.127 1.626-.292.943.641-.725.99-2.622 1.042-3.973.569" transform="translate(0 -1)"/>
        <g transform="translate(0 -1) translate(0 37.245)">
            <mask id="prefix__d" fill="#fff">
                <use xlink:href="#prefix__c"/>
            </mask>
            <path fill="#172733" d="M.016 2.072C.066 1.282.843.614 1.73.723c.845.104.934.815.888 1.491-.067.992-.89 1.164-1.6 1.165C.3 3.381-.086 2.85.015 2.072" mask="url(#prefix__d)"/>
        </g>
        <path fill="#172733" d="M2.08 42.026c.729-.452 1.102.202 1.145.694.042.493-1.15.963-1.555.749-.409-.215-.318-.99.41-1.443" transform="translate(0 -1)"/>
    </g>
</svg>
