<svg xmlns="http://www.w3.org/2000/svg" width="16" height="18" viewBox="0 0 16 18">
    <path fill="#222B36" fill-rule="evenodd" d="M5.286 10.125H3.857c-.236 0-.428-.19-.428-.422V8.297c0-.232.192-.422.428-.422h1.429c.235 0 .428.19.428.422v1.406c0 .232-.193.422-.428.422zm3.857-.422c0 .232-.193.422-.429.422H7.286c-.236 0-.429-.19-.429-.422V8.297c0-.232.193-.422.429-.422h1.428c.236 0 .429.19.429.422v1.406zm3.428 0c0 .232-.192.422-.428.422h-1.429c-.235 0-.428-.19-.428-.422V8.297c0-.232.193-.422.428-.422h1.429c.236 0 .428.19.428.422v1.406zm-3.428 3.375c0 .232-.193.422-.429.422H7.286c-.236 0-.429-.19-.429-.422v-1.406c0-.232.193-.422.429-.422h1.428c.236 0 .429.19.429.422v1.406zm-3.429 0c0 .232-.193.422-.428.422H3.857c-.236 0-.428-.19-.428-.422v-1.406c0-.232.192-.422.428-.422h1.429c.235 0 .428.19.428.422v1.406zm6.857 0c0 .232-.192.422-.428.422h-1.429c-.235 0-.428-.19-.428-.422v-1.406c0-.232.193-.422.428-.422h1.429c.236 0 .428.19.428.422v1.406zM16 3.938v12.374c0 .932-.768 1.688-1.714 1.688H1.714C.768 18 0 17.244 0 16.312V3.938C0 3.006.768 2.25 1.714 2.25H3.43V.422C3.429.19 3.62 0 3.857 0h1.429c.235 0 .428.19.428.422V2.25h4.572V.422c0-.232.193-.422.428-.422h1.429c.236 0 .428.19.428.422V2.25h1.715c.946 0 1.714.756 1.714 1.688zm-1.714 12.164V5.625H1.714v10.477c0 .116.097.21.215.21H14.07c.118 0 .215-.094.215-.21z"/>
</svg>
