<svg xmlns="http://www.w3.org/2000/svg" xmlns:xlink="http://www.w3.org/1999/xlink" width="35" height="50" viewBox="0 0 35 50">
    <defs>
        <path id="prefix__a" d="M0.004 0.131L31.579 0.131 31.579 48.953 0.004 48.953z"/>
        <path id="prefix__c" d="M0 0.529L2.617 0.529 2.617 2.879 0 2.879z"/>
    </defs>
    <g fill="none" fill-rule="evenodd">
        <path fill="#00EBC4" d="M4.165 24.265s7.045 5.78 17 5.78c5.638 0 9.549-3.568 10.06-4.265.509-.698.496-2.771-1.049-2.584-2.135.259-1.472-1.457-1.347-2.547.216-1.886-.433-3.524-.433-3.524s.093 6.708-7.51 7.326c-7.603.618-9.676-3.988-9.676-3.988s.465 2.065-2.595 2.733c-3.06.666-4.45 1.07-4.45 1.07M18.29 15.92s1.143-3.956.988-6.553c-.155-2.596-.927-7.006.155-6.64 1.081.366 1.73 1.973 1.73 3.797 0 1.823-.308 6.18-.339 7.603-.032 1.422-.186 2.442-.71 2.782-.526.34-1.824 0-1.824-.495v-.494zM18.891 42.748L21.378 44.974 22.338 39.595 17.731 39.595zM18.891 36.289c-.633.216-2.673.39-3.167-1.118-.495-1.51-.032-2.159 1.36-2.344 1.39-.186 2.627.247 2.813 1.39.185 1.145-.374 1.854-1.006 2.072M23.822 35.823c0-.86.477-1.32 1.644-1.215 1.17.104 1.447.783 1.292 1.526-.155.742-.834 1.082-1.607.989-.773-.092-1.329-.442-1.329-1.3" transform="translate(.215 -.754)"/>
        <path fill="#00EBC4" d="M30.807 34.593s-.68-1.82-2.163-1.808c-1.484.01-8.344-.422-8.344-.422s-6.37.561-9.09 1.116c-2.719.553-4.578.614-4.578.614l4.578-4.511s3.189 1.415 5.088 1.759c1.899.342 7.044 1.104 10.097-.173 3.053-1.278 4.66-1.835 4.66-1.835l-.248 5.26z" transform="translate(.215 -.754)"/>
        <g transform="translate(.215 -.754) translate(2.277 1.008)">
            <mask id="prefix__b" fill="#fff">
                <use xlink:href="#prefix__a"/>
            </mask>
            <path fill="#172733" d="M14.034 33.672c.107 1.18 1.158 1.296 2.087 1.014 1.275-.387.788-2.14-.202-2.14-1.47 0-1.992-.055-1.885 1.126m-8.67-1.126c2.453-.583 4.711-1.01 7.14-1.248-1.38-.759-2.604-1.04-3.75-1.747-.902 1.268-2.104 1.836-3.39 2.995M3.926 23.01c1.09.465 2.558.854 3.686 1.067 1.006.19 1.828.25 3.175.25-1.112-.736-1.993-2.337-2.8-2.118-1.418.383-2.41.846-4.061.801m12.688 16.428c.89 2.327 1.097 4.44 1.809 6.73.436-2.202.516-4.115.674-6.312.026-.34-.18-.525-.552-.5-.562.034-1.124.05-1.931.082m-.52-37.676c-1.214-.124-1.344-.046-1.303 1.22.082 2.492.705 4.912 1.202 7.336.323 1.574.497 3.162.768 4.739.049.286.133.525.362.62.247.102.329-.173.476-.335.527-.586.111-1.224.17-1.831.172-1.828-.115-3.66.163-5.5.214-1.429-.002-2.897-.163-4.346-.13-1.182-.622-1.796-1.674-1.903m11.72 27.523c-3.215 1.935-5.947 2.962-9.759 2.7.103.26.577 1.086.243 2.179-.336 1.093-.664 1.605-1.775 1.781-2.318.37-3.509-.55-3.796-2.86-.028-.235.091-.687-.387-.652-.538.04-1.105.062-1.602.248-1.403.53-2.87.7-4.333.935-.378.062-1.097-.12-1.007.6.198 1.59.348 4.545.76 4.747.409.205 1.63.073 1.986-1.302.356-1.375 1.641-1.767 2.148-1.761 1.06.011 1.716.076 2.566 1.097.719.862 1.862.757 2.709.767 1.98.019 3.961-.073 5.942-.135 1.327-.042 2.655-.072 3.976-.191.43-.04 1.068-.075 1.216-.561.424-1.392 1.176-2.681 1.15-4.223-.02-1.237.136-2.411-.037-3.369M4.355 24.458c1.027.74 2.06 1.473 3.08 2.218 3.44 2.515 7.302 3.602 11.665 3.474 4.436-.131 7.997-1.27 10.91-4.644 1-1.158.053-2.158-.909-2.473-1.716-.561-2.703.264-3.507 1.293-.804 1.03-2.071 2.671-5.44 3.065-3.412.399-5.864-.858-6.769-1.275-.904-.417-1.993-.163-4.66-.532-2.526-.35-4.345-1.187-4.37-1.126m10.739-9.601c-.047-.687.17-1.485-.293-1.689-.76-.333-1.698-.38-2.477.129-1.227.803-1.979 2.077-2.55 3.322-.774 1.688-.231 2.98.82 4.883 1.053 1.901 4.674 4.403 8.74 4.068 4.066-.335 6.118-4.136 6.302-5.722.142-1.226.393-2.512-.016-3.643-.945-2.615-5.936-4.472-6.357-3.58-.755 1.599 1.133 1.3 1.66 1.774.53.474-.11.437-.294.452-1.05.089-1.699.746-2.306 1.506-.345.43-.764 1.234-1.136 1.232-.372-.003 0-.49-.956-1.186-.695-.505-2.605-.482-2.627-.719-.019-.18.338-.996 1.49-.827m14.301 14.18c-.061.556.116.859 0 1.453-.157.808-.228 1.64-.185 2.44.03.556-.69 5.473-2.028 5.674-1.339.2-5.312.325-5.832.412-.52.088-.663 1.302-.763 2.198-.1.897-.463 3.847-.742 6.183-.045.375-.665 1.011-.953 1.302-.56.567-1.377.148-1.71-.867-.326-.996-.704-1.985-.918-3.005-.335-1.592-.801-3.594-1.055-4.585-.108-.426-.362-.867-1.189-.882-.441-.007-.995-.07-1.408-.231-.746-.293-.88-1.746-1.761-1.747-.881 0-1.274.974-1.569 2.017-.233.825-2.037 1.087-2.503 1.16-1.055.161-1.903-.62-2.156-1.597-.251-.974-.557-3.27-.59-4.158-.015-.403-.077-.726-.467-.97-.35-.219-.232-.613-.05-.88C4.57 31.41 7.47 29.096 7.57 28.96c-.886-.702-2.287-1.764-3.087-2.52C3.392 25.41.787 22.986.288 22.619c-.371-.275-.406-.871.058-.976.464-.105 1.694-.105 3.04-.07 1.346.036 3.937-.36 4.296-.787.36-.43-.034-2.437.441-4.452.643-2.73 3.253-4.682 4.932-5.034 1.154-.241 1.32-.575 1.152-1.486-.24-1.655-.572-3.31-.62-4.972-.037-1.21-.152-2.483.324-3.662.369-.914 1.255-.957 2.05-1.037 1.184-.118 2.455.652 2.91 1.577.452.924.65 5.129.588 6.084-.063.955-.326 2.618-.297 3.18 2.57-.491 4.358.67 6.135 2.241 1.112.984 2.044 3.25 2.183 5.08.137 1.83-.452 3.3.185 3.246.793-.07 1.283-.21 2.04.116 2.008.865 2.325 3.21 1.322 4.681-.669.98-1.57 2.133-1.632 2.69" mask="url(#prefix__b)"/>
        </g>
        <path fill="#172733" d="M25.469 36.483c.512.095.927-.11.925-.66-.002-1.088-1.585-1.08-1.807-.33-.223.748.37.897.882.99m-.014 1.386c-1.32-.135-2.333-1.224-2.21-2.38.11-1.046 1.245-1.896 2.376-1.781 1.406.14 2.007.87 1.864 2.257-.11 1.08-1.09 2-2.03 1.904M31.288 14.03c-.185-.565-.073-2.32 1.147-2.486.869-.118 1.928.438 1.87 1.657-.04.878-.613 1.658-1.459 1.806-.586.102-1.374-.411-1.558-.977" transform="translate(.215 -.754)"/>
        <g transform="translate(.215 -.754) translate(0 30.608)">
            <mask id="prefix__d" fill="#fff">
                <use xlink:href="#prefix__c"/>
            </mask>
            <path fill="#172733" d="M.008 1.553C.062.898.694.616 1.408.54c.947-.1 1.233.492 1.208.989-.033.682-.64 1.352-1.603 1.35C.158 2.877-.046 2.21.008 1.553" mask="url(#prefix__d)"/>
        </g>
        <path fill="#172733" d="M27.528 9.598c-.32-.318-.247-.823.407-1.143.525-.258.9.144 1.11.453.157.23.235.801-.338 1.002-.369.128-.858.005-1.18-.312M.923 37.687c-.321-.317-.247-.823.406-1.143.526-.256.9.145 1.109.453.158.231.236.803-.336 1.001-.369.13-.86.007-1.18-.31" transform="translate(.215 -.754)"/>
    </g>
</svg>
