<svg xmlns="http://www.w3.org/2000/svg" xmlns:xlink="http://www.w3.org/1999/xlink" width="33" height="56" viewBox="0 0 33 56">
    <defs>
        <path id="prefix__a" d="M0.358 0.92L32.474 0.92 32.474 56.862 0.358 56.862z"/>
    </defs>
    <g fill="none" fill-rule="evenodd">
        <path fill="#00EFC8" d="M13.323 40.45s.313-2.842.67-3.305c.358-.464-8.236-4.923-10.329-9.182C7.744 30.86 17 26.571 18.718 15.656c1.452-9.225-6.453-12.32-6.453-12.32s7-2.508 11.36.613c4.36 3.12 8.913 6.876 8.261 16.125-.65 9.25-10.68 16.205-13.417 16.622-2.737.416 1.571.794 1.605 2.621.034 1.83-1.782 2.596-3.62 2.173-1.838-.423-3.131-1.04-3.131-1.04" transform="translate(0 -1)"/>
        <g transform="translate(0 -1) translate(0 .217)">
            <mask id="prefix__b" fill="#fff">
                <use xlink:href="#prefix__a"/>
            </mask>
            <path fill="#172733" d="M29.127 25.64c-1.107 2.957-4.076 7.209-10.256 9.458-2.394.872-5.712.302-7.516-.87-1.834-1.194-3.325-2.817-4.6-4.604C5.115 27.32 3.999 25.2 3.157 20.9.678 8.243 11.39 3.109 17.386 3.316c8.89.304 14.824 10.987 11.741 22.324m-9.84 13.81c-.164.979-2.161.653-3.312.71-.882.044-1.904-.12-1.757-1.019.197-1.205 1.344-1.542 2.673-1.516 1.328.025 2.562.847 2.397 1.826m11.98-28.271C29.268 5.364 23.842.678 16.892.93 9.941 1.18 5.41 4.986 2.852 8.69c-4.99 7.227-2.655 22.854 8.483 27.966 1.357.624 1.982.243 1.7.683-.872 1.359-1.04 3.804.678 4.167.797.168.798.707.453 1.783-.743 2.307.167 4.399 2.932 8 2.861 3.728 1.822 5.6 1.98 5.573.354-.058 1.592-.487 1.375-2.357-.44-3.777-2.836-4.84-3.864-7.656-1.03-2.817-.097-4.55.49-4.796 2.168.111 2.96.127 3.188-.546.228-.675.827-3.025-.514-4.333-.11-.108.698-.213.86-.279 14.67-6.675 12.241-21.1 10.655-25.715" mask="url(#prefix__b)"/>
        </g>
        <path fill="#172733" d="M28.586 42.656c-.033.742-.267 1.605-1.175 1.687-1.04.094-1.185-.722-1.209-1.554-.013-.503.26-1.27 1.244-1.29.983-.018 1.152.904 1.14 1.157M28.87 36.069c1.252-.515 1.394 1.26 1.359 1.753-.035.495-.59.836-.813.801-.756-.12-1.799-2.04-.547-2.554M.824 3.58c.78-.04.825.666.912 1.09.049.236-.442.745-.782.862-.616.212-.975-.283-.953-.817.02-.472.081-1.105.823-1.134M22.02 29.831c.17.659 3.208-1.706 4.373-6.24.825-3.216-.597-3.748-1.267-3.5-.67.246-.54 2.969-1.342 5.317-.963 2.823-1.937 3.765-1.765 4.423M26.077 14.8c-1.213.162-.46 3.743.443 3.604.904-.136.77-3.765-.443-3.604" transform="translate(0 -1)"/>
    </g>
</svg>
