<svg xmlns="http://www.w3.org/2000/svg" xmlns:xlink="http://www.w3.org/1999/xlink" width="52" height="31" viewBox="0 0 52 31">
    <defs>
        <path id="prefix__a" d="M0.871 0.941L49.437 0.941 49.437 31.88 0.871 31.88z"/>
    </defs>
    <g fill="none" fill-rule="evenodd">
        <path fill="#FFF" d="M6.732 2.313c-1.47-.298-2.205.57-2.205 2.605 0 3.052-1.702 8.96-.85 13.255.85 4.293 1.565 7.75 3.868 7.75s-.295 3.662 3.684 3.662c3.978 0 1.235-2.579 6.815-2.579h12.46c1.565 2.552 3.096 3.829 4.594 3.829 1.497 0 2.804-1.277 3.919-3.829 6.701.618 10.299.256 10.793-1.084.741-2.01 2.583-9.232-.646-10.875-3.23-1.642-7.59-.46-8.869-2.8-1.278-2.339 2.896-9.934-3.811-9.934H6.732z" transform="translate(0 -1)"/>
        <path fill="#00F0C9" d="M15.012 26.32c0 1.458-1.17 2.64-2.613 2.64-1.444 0-2.612-1.182-2.612-2.64 0-1.458 1.168-2.641 2.612-2.641 1.444 0 2.613 1.183 2.613 2.64M38.126 27.134c0 1.661-1.17 3.008-2.614 3.008-1.443 0-2.612-1.347-2.612-3.008 0-1.66 1.169-3.007 2.612-3.007 1.444 0 2.614 1.347 2.614 3.007M13.022 14.72s-.623 2.582.527 2.793c1.15.212 19.549.217 20.844.397 1.294.18 1.581-1.602 1.198-2.397-.384-.793-22.57-.793-22.57-.793M14.52 8.316c1.903.187 4.77-2.339 4.77-2.339s2.532 2.188 4.335 2.339c1.802.152 3.57-2.135 3.57-2.135s1.812 1.932 3.37 1.932c1.56 0 2.919-1.237 2.919-1.237s.955 1.557 2.615 1.448c1.66-.11 3.874-.974 3.823-1.89-.05-.913-1.672-3.158-5.194-3.124-3.52.032-24.472-.808-27.577 1.295-1.653 1.12-1.897 3.592.227 3.456 3.568-.227 3.32-1.677 3.32-1.677s1.395 1.693 3.822 1.932" transform="translate(0 -1)"/>
        <g transform="translate(0 -1) translate(2.04 .09)">
            <mask id="prefix__b" fill="#fff">
                <use xlink:href="#prefix__a"/>
            </mask>
            <path fill="#172733" d="M47.098 22.508c1.14.048 1.296-.278 1.335-.849.038-.572.1-1.01-.432-1.022-.532-.013-2.117-.267-2.248 1.283-.013.645.206.54 1.345.588m-35.459 3.573c-.104-1.53-1.102-2.186-2.18-2.205-1.492-.026-2.914.572-2.708 2.82.134 1.444 1.254 1.93 2.285 1.885 1.257-.056 2.494-.51 2.603-2.5m23.805 1.782c.454-1.397-1.072-3.95-2.934-3.822-1.207.084-2.696 1.412-2.64 2.821.07 1.719 1.216 2.77 2.66 2.936 1.133.13 2.461-.537 2.914-1.935M8.236 15.646c.124.568-.072 1.358 1.071 1.444 3.805.286 7.6-.038 11.396-.028 2.654.008 5.306.157 7.96.214 1.282.03 2.57.063 3.843-.04.621-.05.731-.682.635-1.237-.031-.173-.251-.44-.394-.446-3.418-.168-6.834-.365-10.255-.432-3.672-.072-14.406-.158-14.256.525M9.876 2.82c-1.267 0-2.562-.164-3.792.052-.963.169-2.41-.252-2.804.934-.398 1.2-.035 2.542 1.336 3.113 1.267.528 2.378.091 3.296-.908.92-.998.927-.991 1.555-.125.045.063.106.113.16.168 2.144 2.218 4.737 1.996 6.641-.689 1.018-1.436 1.663-.796 2.228.258 1.1 2.052 4.275 1.754 5.204.758 1.171-1.258 1.017-2.225 2.172-.766 1.722 2.175 3.32 2.178 5.213.186.226-.238.662-.478.898.134.349.905 1.145 1.329 2.136 1.57.913.223 1.78.033 2.377-.703.345-.426.712-1.07.108-2.087-.603-1.016-1.788-1.179-3.225-1.201-3.445-.055-6.916.091-10.329-.288-4.393-.49-8.766-.77-13.175-.406M31.55 13.753c1.225.002 1.61-.231 1.572-1.326-.039-1.094-.08-2.399-.087-3.532-.795-.229-1.542-1.47-2.089-1.068-1.65 1.215-3.727 1.26-5.115-.145-.196-.198-.514-.796-.933-.4-2.416 2.28-4.882 2.031-7.295-.253-.246-.233-.497-.38-.726-.058-1.984 2.779-6.09 1.84-8.1.538-.123-.078-.303.204-.855.598-.183.13-.465.235-.436.495.117 1.035-.009 4.783.846 4.835 4.092.254 8.201.34 12.304.307 3.319-.026 9.688.008 10.914.009m2.782-3.93c-.021 1.124.182 5.376-.01 7.35-.185 1.9-2.044 1.428-3.094 1.478-3.09.147-6.196-.131-9.295-.135-2.856-.003-5.724.316-8.567.15-2.372-.138-5.381.153-6.544-1.298-1.068-1.164-.867-2.966-.937-4.273-.081-1.542.217-2.847-.217-4.275-.727.087-1.887-.328-2.99-1.03C.564 6.442 1.656 2.766 2.6 2.247c2.157-1.18 4.615-1.032 6.917-1.194 5.233-.367 10.434.234 15.637.636 2.975.23 6.88.397 9.865.508 2.86.107 4.235 3.325 3.761 6.2-.534 3.233.575 4.567 3.824 4.552 2.25-.011 4.565.025 6.167 1.85 1.026 1.17.553 2.88.58 4.334.033 1.899-.24 3.804-.368 5.707-.184 2.727-2.06 2.763-4.231 2.84-2.172.079-4.583.363-5.959.188-2.416-.301-1.812.947-2.73 2.345-.92 1.397-2.836 1.845-4.246 1.604-1.6-.274-2.794-1.449-3.295-3.253-.294-1.055-1.79-.992-2.689-1.055-4.014-.278-8.21-.15-12.233-.09-.508.007-.93 1.276-1.51 1.836-1.228 1.187-2.993 1.706-4.609.977-1.247-.563-2.132-1.281-2.495-2.87-.214-.938-1.274-.853-1.893-1.31C1.51 24.89 1.35 22.98 1.169 21.31c-.383-3.524-.386-7.09-.075-10.637.037-.421.21-.993.714-.947.495.046.471.592.484 1.037.103 3.539.136 7.085.387 10.614.094 1.347.673 2.677 1.648 3.71.245.26.633.428.796-.16.667-2.4 3.582-3.478 5.862-2.28 1.213.638 2.188 1.322 2.213 2.85.001.073.318.201.488.202 2.623.012 5.245-.02 7.866.019 2.058.03 4.115.14 6.172.228.416.018.981-.05 1.109-.468.79-2.594 2.906-2.853 4.225-2.797 1.32.058 2.766.865 3.32 2.821.247.87 1.848.7 2.347.682 2.668-.095 5.359.047 8.027-.046.91-.03 1.28-.97 1.267-1.672-.01-.555-.748-.296-1.174-.35-.83-.106-2.637.132-2.688-1.188-.055-1.468-.04-3.348 2.113-3.47.544-.03 2.1.38 2.077-.149-.063-1.406.349-3.044-1.129-4.078-1.707-1.194-3.706-.79-5.562-.894-3.307-.186-4.053-2.418-4.335-3.733-.35-1.629-.163-2.642-.188-2.84-.17.248-.915.897-1.585.965-.967.1-1.198.073-1.217 1.093" mask="url(#prefix__b)"/>
        </g>
        <path fill="#172733" d="M41.612 30.96c-.855.058-2.422.418-2.456-.085-.028-.414.081-.797.424-.83 2.858-.286 5.03-.431 7.909.038.314.051.908-.022.973.302.031.463-.71.589-1.114.607-.405.02-3.946-.153-5.736-.032M.548 30.326c-.19.022-.495-.01-.54-.427-.05-.452.166-.621.375-.666 1.996-.427 5.757-.239 5.968-.187.211.051.393.169.352.654-.04.484-4.308.412-6.155.626M27.338 30.866c.051-.372.464-.69 1.083-.778.47-.067.947.178.869.602-.12.65-.505 1.29-1.29 1.337-.53.033-.703-.367-.662-1.16M18.37 31.1c-.468.005-1.254.011-1.222-.54.06-.843.833-.79 1.448-.773.36.01.711.157.772.66.06.5-.529.648-.998.653M24.106 31.782c-.517.05-.756-.381-.615-.855.14-.474 1.273-.433 1.349.07.076.5-.215.735-.734.785" transform="translate(0 -1)"/>
    </g>
</svg>
