<svg xmlns="http://www.w3.org/2000/svg" width="43" height="36" viewBox="0 0 43 36">
    <g fill="none" fill-rule="evenodd">
        <path fill="#00F0C9" d="M26.515 28.67s6.412-3.357 6.6-9.935c.188-6.576-1.057-10.962-1.057-10.962s3.082.468 4.572 2.156c1.49 1.686 1.962 11.432 1.208 13.681-.754 2.249-4.732 6.884-8.027 5.972l-3.296-.912zM2.775 26.515L10.001 25.516 11.258 28.327 4.22 28.827zM13.709 7.773s7.594-.909 9.677-2.191c2.082-1.284 2.864-.755 3.456.692.817 1.999-13.133 1.5-13.133 1.5M15.388 22.31c0-2.798 2.283-5.067 5.098-5.067 2.816 0 5.099 2.269 5.099 5.068 0 2.799-2.283 5.068-5.099 5.068-2.815 0-5.098-2.27-5.098-5.068"/>
        <path fill="#172733" d="M10.041 24.659c1.06.738 2.331 4.48 9.28 4.59 7.046.111 8.455-5.445 8.754-8.918.421-4.887-3.351-8.57-7.992-8.858-4.642-.29-10.055 2.567-10.568 8.687-.078.925-1.729 1.02-1.613-.239.766-8.363 7.027-10.363 12.275-10.287 5.247.076 10.107 5.25 9.98 10.09-.107 4.06-.667 5.717-1.705 7.684-.176.334 2.277.262 3.553.24 1.277-.02 2.74-1.264 3.318-2.32.838-1.531 1.045-2.932 1.226-4.598.345-3.18.498-9.628-1.519-11.083-2.019-1.457-6.374-1.218-7.557-1.286-1.1-.063-4.434-.342-4.45-.674-.014-.26.81-.487 2.24-.532.398-.013.649-.328.591-.672-.112-.66-.806-2.59-5.107-2.753-4.3-.163-5.681.691-6.178 2.425-.154.54 1.153.839 3.146.883 2.212.05 2.938.27 3.108.667.178.415-1.783.345-5.944.492-3.741.131-7.19.587-9.57.92-2.38.333-2.71 6.878-2.853 8.279-.213 2.102.183 9.92 2.789 10.005 2.606.085 4.822.493 4.622-.294-.397-1.553-.886-3.186.174-2.448m16.065 5.83c-2.57.853-5.37 1.328-7.71 1.253-2.34-.076-4.027-.637-6.062-1.483-2.116-.882-7.536.155-9.575-1.205C.423 27.496-.076 20.946.009 17.936c.085-3.01.39-5.491 1.152-7.743.569-1.68 1.859-2.938 5.299-3.298 3.502-.367 5.4-.316 6.028-1.495.978-1.836 2.756-3.894 8.374-3.713 5.616.18 6.842 2.706 7.463 3.898.622 1.192 5.15.816 7.083 1.62 2.73 1.136 3.736 3.698 3.494 11.097-.242 7.4-1.303 9.673-3.824 10.904-2.522 1.232-7.049.646-8.972 1.284"/>
        <path fill="#172733" d="M9.294 3.066c.567.06.972.414.892.995-.082.582-.426.956-1.135.992-1.161.057-2.32.212-3.474.368-.478.064-1.002.248-1.26-.28-.254-.518-.01-.967.47-1.302.904-.631 4.004-.827 4.507-.773M31.998 32.464c1.581.385 1.41 1.645.872 2.476-.347.531-2.386 1.215-3.144.39-.76-.824.527-3.29 2.272-2.866M42.837 22.769c-.079.909-1.076 1.934-1.807 1.422-.73-.513-.155-3.176.652-3.194.806-.019 1.234.862 1.155 1.772M11.172.544c.65-.66 1.881-.788 2.22 0 .341.786-1.606 2.14-2.198 1.553-.376-.372-.67-.895-.022-1.553M25.577 35.22c-.135-.505.755-1.498 1.782-1.098.315.124.387.563.2.867-.478.787-1.846.736-1.982.231M20.275 12.963c3.35.441 6.242 3.041 6.24 6.9 0 3.614-1.833 8.852-8.356 7.995-3.753-.494-4.753-2.168-4.52-2.564.288-.49.667-.282 1.18-.045 1.281.593 2.306.972 3.874 1.048 1.534.073 4.85-.593 5.536-4.52.685-3.925-1.889-6.324-4.39-6.604-2.5-.28-5.192.523-6.638 4.504-.446 1.223-1.756.774-1.539-.26 1.072-5.105 3.924-7.07 8.613-6.454"/>
    </g>
</svg>
