<svg xmlns="http://www.w3.org/2000/svg" xmlns:xlink="http://www.w3.org/1999/xlink" width="2236" height="530" viewBox="0 0 2236 530">
    <defs>
        <path id="prefix__a" d="M1516.814.286c-31.787 0-57.216 25.429-57.216 56.509 0 31.08 25.429 56.509 57.216 56.509h54.389v353.179c0 31.08 25.429 56.509 56.51 56.509 30.373 0 55.801-25.429 55.801-56.509V113.304h54.39c31.786 0 57.216-25.429 57.216-56.509 0-31.08-25.43-56.509-57.216-56.509h-221.09zm-211.198 55.803v411.1c0 30.374 24.722 55.803 55.803 55.803 31.079 0 55.802-25.429 55.802-55.803v-411.1c0-30.374-24.723-55.803-55.802-55.803-31.081 0-55.803 25.429-55.803 55.803zM57.505.286C25.719.286.997 25.715.997 56.795v409.688c0 31.08 24.722 56.509 56.508 56.509 31.081 0 56.509-25.429 56.509-56.509V324.505h52.977c89.707 0 162.463-72.755 162.463-162.463C329.454 73.041 256.698.286 166.991.286H57.505zm56.509 113.018h52.977c27.549 0 49.445 21.896 49.445 48.738 0 28.255-21.896 49.446-49.445 49.446h-52.977v-98.184zm254.284-3.533v356.712c0 31.08 25.429 56.509 56.509 56.509 31.079 0 56.508-25.429 56.508-56.509V109.771c0-31.079-25.429-56.509-56.508-56.509-31.08 0-56.509 25.43-56.509 56.509zm660.43 72.049c-9.182-7.063-21.19-12.008-33.905-12.008-29.667 0-52.977 24.016-52.977 53.684v243.693c0 30.374 24.723 55.803 55.802 55.803 31.08 0 55.802-25.429 55.802-55.803v-145.51c0-24.016 19.779-43.087 43.795-43.087 24.016 0 43.088 19.071 43.088 43.087v145.51c0 30.374 25.429 55.803 56.509 55.803 31.08 0 55.802-25.429 55.802-55.803v-145.51c0-85.469-69.224-155.399-155.399-155.399-24.723 0-48.033 5.652-68.517 15.54zM523.694 347.814c0 99.598 81.231 180.828 180.828 180.828 32.492 0 61.453-8.475 88.295-22.603 9.889 9.89 24.015 16.953 39.556 16.953 28.961 0 52.977-24.017 52.977-52.977V222.789c0-28.961-24.016-52.977-52.977-52.977-16.953 0-31.08 7.063-40.969 19.778-26.842-14.128-55.803-22.604-86.882-22.604-99.597 0-180.828 81.231-180.828 180.828zm112.31 0c0-38.143 30.374-68.516 68.518-68.516 38.142 0 68.515 30.373 68.515 68.516 0 38.144-30.373 68.518-68.515 68.518-38.144 0-68.518-30.374-68.518-68.518z"/>
        <path id="prefix__c" d="M.197 167.547c0 92.507 74.993 167.5 167.501 167.5 92.508 0 167.5-74.993 167.5-167.5 0-92.508-74.992-167.5-167.5-167.5S.197 75.039.197 167.547"/>
        <path id="prefix__e" d="M.197 167.547c0 92.507 74.993 167.5 167.501 167.5 92.508 0 167.5-74.993 167.5-167.5 0-92.508-74.992-167.5-167.5-167.5S.197 75.039.197 167.547"/>
    </defs>
    <g fill="none" fill-rule="evenodd">
        <path fill="#FFF" d="M2235.12 57.582c0 31.08-25.43 56.509-57.216 56.509h-54.39V467.27c0 31.08-25.428 56.509-55.801 56.509-31.08 0-56.51-25.428-56.51-56.51V114.092h-54.39c-31.786 0-57.214-25.43-57.214-56.51s25.428-56.508 57.215-56.508h221.09c31.786 0 57.216 25.429 57.216 56.509m-433.701 466.197c-31.08 0-55.803-25.428-55.803-55.802V56.876c0-30.374 24.723-55.803 55.803-55.803 31.079 0 55.802 25.429 55.802 55.803v411.1c0 30.375-24.723 55.803-55.802 55.803m-108.774-201.312v145.51c0 30.374-24.723 55.802-55.802 55.802-31.08 0-56.51-25.428-56.51-55.802v-145.51c0-24.017-19.071-43.088-43.088-43.088-24.016 0-43.794 19.07-43.794 43.088v145.51c0 30.374-24.722 55.802-55.803 55.802-31.08 0-55.801-25.428-55.801-55.802V224.283c0-29.668 23.309-53.683 52.976-53.683 12.715 0 24.723 4.944 33.906 12.007 20.484-9.888 43.793-15.54 68.516-15.54 86.176 0 155.4 69.93 155.4 155.4m-479.607 26.135c0-38.143-30.373-68.517-68.516-68.517-38.144 0-68.517 30.374-68.517 68.517s30.373 68.517 68.517 68.517c38.143 0 68.516-30.374 68.516-68.517m112.313-125.026v247.227c0 28.96-24.017 52.976-52.978 52.976-15.54 0-29.667-7.063-39.556-16.953-26.841 14.128-55.802 22.604-88.295 22.604-99.597 0-180.828-81.231-180.828-180.828 0-99.597 81.23-180.83 180.828-180.83 31.08 0 60.04 8.478 86.882 22.605 9.889-12.714 24.017-19.777 40.969-19.777 28.96 0 52.978 24.015 52.978 52.976M864.808 523.779c-31.08 0-56.51-25.428-56.51-56.51V110.56c0-31.08 25.43-56.51 56.51-56.51 31.079 0 56.507 25.43 56.507 56.51v356.71c0 31.082-25.428 56.51-56.507 56.51m-208.371-360.95c0-26.842-21.897-48.738-49.446-48.738h-52.976v98.183h52.976c27.549 0 49.446-21.19 49.446-49.445m113.017 0c0 89.708-72.755 162.463-162.463 162.463h-52.976V467.27c0 31.08-25.43 56.509-56.51 56.509-31.785 0-56.508-25.428-56.508-56.51V57.583c0-31.08 24.723-56.51 56.509-56.51H606.99c89.708 0 162.463 72.756 162.463 161.757"/>
        <g transform="translate(440 .787)">
            <mask id="prefix__b" fill="#fff">
                <use xlink:href="#prefix__a"/>
            </mask>
            <path fill="#FFF" d="M-20.323 578L1871.337 578 1871.337 -55.787 -20.323 -55.787z" mask="url(#prefix__b)"/>
            <path fill="#FFF" d="M-20.323 6.767L1871.337 6.767 1871.337-5.216-20.323-5.216zM-20.323 18.75L1871.337 18.75 1871.337 6.768-20.323 6.768zM-20.323 30.733L1871.337 30.733 1871.337 18.75-20.323 18.75zM-20.323 42.716L1871.337 42.716 1871.337 30.734-20.323 30.734zM-20.323 54.698L1871.337 54.698 1871.337 42.716-20.323 42.716zM-20.323 66.681L1871.337 66.681 1871.337 54.698-20.323 54.698zM-20.323 78.664L1871.337 78.664 1871.337 66.682-20.323 66.682zM-20.323 90.647L1871.337 90.647 1871.337 78.664-20.323 78.664zM-20.323 102.63L1871.337 102.63 1871.337 90.648-20.323 90.648zM-20.323 114.612L1871.337 114.612 1871.337 102.63-20.323 102.63zM-20.323 126.596L1871.337 126.596 1871.337 114.613-20.323 114.613zM-20.323 138.578L1871.337 138.578 1871.337 126.596-20.323 126.596zM-20.323 150.561L1871.337 150.561 1871.337 138.578-20.323 138.578zM-20.323 162.544L1871.337 162.544 1871.337 150.562-20.323 150.562zM-20.323 165.636L1871.337 165.636 1871.337 162.544-20.323 162.544z" mask="url(#prefix__b)"/>
            <path fill="#FFF" d="M-20.323 168.726L1871.337 168.726 1871.337 165.635-20.323 165.635zM-20.323 171.818L1871.337 171.818 1871.337 168.726-20.323 168.726zM-20.323 174.909L1871.337 174.909 1871.337 171.818-20.323 171.818zM-20.323 178.001L1871.337 178.001 1871.337 174.909-20.323 174.909zM-20.323 181.093L1871.337 181.093 1871.337 178.001-20.323 178.001z" mask="url(#prefix__b)"/>
            <path fill="#FFF" d="M-20.323 184.183L1871.337 184.183 1871.337 181.092-20.323 181.092zM-20.323 187.275L1871.337 187.275 1871.337 184.183-20.323 184.183zM-20.323 190.367L1871.337 190.367 1871.337 187.275-20.323 187.275zM-20.323 193.458L1871.337 193.458 1871.337 190.367-20.323 190.367zM-20.323 196.55L1871.337 196.55 1871.337 193.458-20.323 193.458z" mask="url(#prefix__b)"/>
            <path fill="#FFF" d="M-20.323 199.64L1871.337 199.64 1871.337 196.549-20.323 196.549zM-20.323 202.732L1871.337 202.732 1871.337 199.64-20.323 199.64zM-20.323 205.824L1871.337 205.824 1871.337 202.732-20.323 202.732zM-20.323 208.915L1871.337 208.915 1871.337 205.824-20.323 205.824zM-20.323 212.007L1871.337 212.007 1871.337 208.915-20.323 208.915z" mask="url(#prefix__b)"/>
            <path fill="#FFF" d="M-20.323 215.098L1871.337 215.098 1871.337 212.006-20.323 212.006zM-20.323 218.189L1871.337 218.189 1871.337 215.098-20.323 215.098zM-20.323 221.281L1871.337 221.281 1871.337 218.189-20.323 218.189zM-20.323 224.372L1871.337 224.372 1871.337 221.281-20.323 221.281zM-20.323 227.464L1871.337 227.464 1871.337 224.372-20.323 224.372zM-20.323 230.556L1871.337 230.556 1871.337 227.464-20.323 227.464z" mask="url(#prefix__b)"/>
            <path fill="#FFF" d="M-20.323 233.646L1871.337 233.646 1871.337 230.555-20.323 230.555zM-20.323 236.738L1871.337 236.738 1871.337 233.646-20.323 233.646zM-20.323 239.83L1871.337 239.83 1871.337 236.738-20.323 236.738zM-20.323 242.921L1871.337 242.921 1871.337 239.83-20.323 239.83zM-20.323 246.013L1871.337 246.013 1871.337 242.921-20.323 242.921z" mask="url(#prefix__b)"/>
            <path fill="#FFF" d="M-20.323 249.103L1871.337 249.103 1871.337 246.012-20.323 246.012zM-20.323 252.195L1871.337 252.195 1871.337 249.103-20.323 249.103zM-20.323 255.287L1871.337 255.287 1871.337 252.195-20.323 252.195zM-20.323 258.378L1871.337 258.378 1871.337 255.287-20.323 255.287zM-20.323 261.47L1871.337 261.47 1871.337 258.378-20.323 258.378z" mask="url(#prefix__b)"/>
            <path fill="#FFF" d="M-20.323 264.561L1871.337 264.561 1871.337 261.469-20.323 261.469zM-20.323 267.652L1871.337 267.652 1871.337 264.561-20.323 264.561zM-20.323 270.744L1871.337 270.744 1871.337 267.652-20.323 267.652zM-20.323 273.836L1871.337 273.836 1871.337 270.744-20.323 270.744zM-20.323 276.927L1871.337 276.927 1871.337 273.836-20.323 273.836z" mask="url(#prefix__b)"/>
            <path fill="#FFF" d="M-20.323 280.018L1871.337 280.018 1871.337 276.926-20.323 276.926zM-20.323 283.109L1871.337 283.109 1871.337 280.018-20.323 280.018zM-20.323 286.201L1871.337 286.201 1871.337 283.109-20.323 283.109zM-20.323 289.293L1871.337 289.293 1871.337 286.201-20.323 286.201zM-20.323 292.384L1871.337 292.384 1871.337 289.293-20.323 289.293z" mask="url(#prefix__b)"/>
            <path fill="#FFF" d="M-20.323 295.475L1871.337 295.475 1871.337 292.383-20.323 292.383zM-20.323 298.567L1871.337 298.567 1871.337 295.475-20.323 295.475zM-20.323 301.658L1871.337 301.658 1871.337 298.567-20.323 298.567zM-20.323 304.75L1871.337 304.75 1871.337 301.658-20.323 301.658zM-20.323 307.841L1871.337 307.841 1871.337 304.75-20.323 304.75z" mask="url(#prefix__b)"/>
            <path fill="#FFF" d="M-20.323 310.932L1871.337 310.932 1871.337 307.84-20.323 307.84zM-20.323 314.024L1871.337 314.024 1871.337 310.932-20.323 310.932zM-20.323 317.115L1871.337 317.115 1871.337 314.024-20.323 314.024zM-20.323 320.207L1871.337 320.207 1871.337 317.115-20.323 317.115zM-20.323 323.299L1871.337 323.299 1871.337 320.207-20.323 320.207z" mask="url(#prefix__b)"/>
            <path fill="#FFF" d="M-20.323 326.389L1871.337 326.389 1871.337 323.298-20.323 323.298zM-20.323 329.481L1871.337 329.481 1871.337 326.389-20.323 326.389zM-20.323 332.572L1871.337 332.572 1871.337 329.481-20.323 329.481zM-20.323 335.664L1871.337 335.664 1871.337 332.572-20.323 332.572zM-20.323 338.756L1871.337 338.756 1871.337 335.664-20.323 335.664zM-20.323 341.847L1871.337 341.847 1871.337 338.756-20.323 338.756z" mask="url(#prefix__b)"/>
            <path fill="#FFF" d="M-20.323 344.938L1871.337 344.938 1871.337 341.846-20.323 341.846zM-20.323 348.03L1871.337 348.03 1871.337 344.938-20.323 344.938zM-20.323 351.121L1871.337 351.121 1871.337 348.03-20.323 348.03zM-20.323 354.213L1871.337 354.213 1871.337 351.121-20.323 351.121zM-20.323 357.304L1871.337 357.304 1871.337 354.213-20.323 354.213z" mask="url(#prefix__b)"/>
            <path fill="#FFF" d="M-20.323 360.395L1871.337 360.395 1871.337 357.303-20.323 357.303zM-20.323 363.487L1871.337 363.487 1871.337 360.395-20.323 360.395zM-20.323 366.578L1871.337 366.578 1871.337 363.487-20.323 363.487zM-20.323 369.67L1871.337 369.67 1871.337 366.578-20.323 366.578zM-20.323 372.762L1871.337 372.762 1871.337 369.67-20.323 369.67z" mask="url(#prefix__b)"/>
            <path fill="#FFF" d="M-20.323 375.852L1871.337 375.852 1871.337 372.761-20.323 372.761zM-20.323 378.944L1871.337 378.944 1871.337 375.852-20.323 375.852zM-20.323 382.035L1871.337 382.035 1871.337 378.944-20.323 378.944zM-20.323 385.127L1871.337 385.127 1871.337 382.035-20.323 382.035zM-20.323 388.219L1871.337 388.219 1871.337 385.127-20.323 385.127z" mask="url(#prefix__b)"/>
            <path fill="#FFF" d="M-20.323 391.309L1871.337 391.309 1871.337 388.218-20.323 388.218zM-20.323 394.401L1871.337 394.401 1871.337 391.309-20.323 391.309zM-20.323 397.493L1871.337 397.493 1871.337 394.401-20.323 394.401zM-20.323 400.584L1871.337 400.584 1871.337 397.493-20.323 397.493zM-20.323 403.676L1871.337 403.676 1871.337 400.584-20.323 400.584z" mask="url(#prefix__b)"/>
            <path fill="#FFF" d="M-20.323 406.766L1871.337 406.766 1871.337 403.675-20.323 403.675zM-20.323 409.858L1871.337 409.858 1871.337 406.766-20.323 406.766zM-20.323 412.95L1871.337 412.95 1871.337 409.858-20.323 409.858zM-20.323 416.041L1871.337 416.041 1871.337 412.95-20.323 412.95zM-20.323 419.133L1871.337 419.133 1871.337 416.041-20.323 416.041z" mask="url(#prefix__b)"/>
            <path fill="#FFF" d="M-20.323 422.224L1871.337 422.224 1871.337 419.132-20.323 419.132zM-20.323 425.315L1871.337 425.315 1871.337 422.224-20.323 422.224zM-20.323 428.407L1871.337 428.407 1871.337 425.315-20.323 425.315zM-20.323 431.498L1871.337 431.498 1871.337 428.407-20.323 428.407zM-20.323 434.59L1871.337 434.59 1871.337 431.498-20.323 431.498z" mask="url(#prefix__b)"/>
            <path fill="#FFF" d="M-20.323 437.681L1871.337 437.681 1871.337 434.589-20.323 434.589zM-20.323 440.772L1871.337 440.772 1871.337 437.681-20.323 437.681zM-20.323 443.864L1871.337 443.864 1871.337 440.772-20.323 440.772zM-20.323 446.956L1871.337 446.956 1871.337 443.864-20.323 443.864zM-20.323 450.047L1871.337 450.047 1871.337 446.956-20.323 446.956zM-20.323 453.139L1871.337 453.139 1871.337 450.047-20.323 450.047z" mask="url(#prefix__b)"/>
            <path fill="#FFF" d="M-20.323 456.229L1871.337 456.229 1871.337 453.138-20.323 453.138zM-20.323 459.321L1871.337 459.321 1871.337 456.229-20.323 456.229zM-20.323 462.413L1871.337 462.413 1871.337 459.321-20.323 459.321zM-20.323 465.504L1871.337 465.504 1871.337 462.413-20.323 462.413zM-20.323 468.596L1871.337 468.596 1871.337 465.504-20.323 465.504z" mask="url(#prefix__b)"/>
            <path fill="#FFF" d="M-20.323 471.687L1871.337 471.687 1871.337 468.595-20.323 468.595zM-20.323 474.778L1871.337 474.778 1871.337 471.687-20.323 471.687zM-20.323 477.87L1871.337 477.87 1871.337 474.778-20.323 474.778zM-20.323 480.961L1871.337 480.961 1871.337 477.87-20.323 477.87zM-20.323 484.053L1871.337 484.053 1871.337 480.961-20.323 480.961z" mask="url(#prefix__b)"/>
            <path fill="#FFF" d="M-20.323 487.144L1871.337 487.144 1871.337 484.052-20.323 484.052zM-20.323 490.235L1871.337 490.235 1871.337 487.144-20.323 487.144zM-20.323 493.327L1871.337 493.327 1871.337 490.235-20.323 490.235zM-20.323 496.419L1871.337 496.419 1871.337 493.327-20.323 493.327zM-20.323 499.51L1871.337 499.51 1871.337 496.419-20.323 496.419z" mask="url(#prefix__b)"/>
            <path fill="#FFF" d="M-20.323 502.601L1871.337 502.601 1871.337 499.509-20.323 499.509zM-20.323 505.692L1871.337 505.692 1871.337 502.601-20.323 502.601zM-20.323 508.784L1871.337 508.784 1871.337 505.692-20.323 505.692zM-20.323 511.876L1871.337 511.876 1871.337 508.784-20.323 508.784zM-20.323 514.967L1871.337 514.967 1871.337 511.876-20.323 511.876z" mask="url(#prefix__b)"/>
            <path fill="#FFF" d="M-20.323 518.058L1871.337 518.058 1871.337 514.966-20.323 514.966zM-20.323 521.15L1871.337 521.15 1871.337 518.058-20.323 518.058zM-20.323 524.241L1871.337 524.241 1871.337 521.15-20.323 521.15zM-20.323 527.333L1871.337 527.333 1871.337 524.241-20.323 524.241zM-20.323 530.424L1871.337 530.424 1871.337 527.333-20.323 527.333z" mask="url(#prefix__b)"/>
        </g>
        <g transform="translate(0 128.787)">
            <mask id="prefix__d" fill="#fff">
                <use xlink:href="#prefix__c"/>
            </mask>
            <path d="M.197 167.547c0 92.507 74.993 167.5 167.501 167.5 92.508 0 167.5-74.993 167.5-167.5 0-92.508-74.992-167.5-167.5-167.5S.197 75.039.197 167.547" mask="url(#prefix__d)"/>
        </g>
        <g transform="translate(0 128.787)">
            <mask id="prefix__f" fill="#fff">
                <use xlink:href="#prefix__e"/>
            </mask>
            <path d="M.197 167.547c0 92.507 74.993 167.5 167.501 167.5 92.508 0 167.5-74.993 167.5-167.5 0-92.508-74.992-167.5-167.5-167.5S.197 75.039.197 167.547" mask="url(#prefix__f)"/>
        </g>
        <g fill="#FFF">
            <path d="M276.21 113.29C261.73 38.014 188.704-11.443 113.423 3.027 38.143 17.51-11.32 90.535 3.16 165.812c3.679 19.122 11.114 36.87 22.096 52.757 2.57 3.715 7.685 4.648 11.409 2.083 3.719-2.571 4.653-7.69 2.083-11.41-9.681-14.001-16.236-29.655-19.482-46.527-6.187-32.164.52-64.814 18.89-91.933 18.367-27.12 46.198-45.463 78.365-51.65 32.17-6.186 64.815.524 91.933 18.89 27.119 18.37 45.462 46.2 51.65 78.366 6.186 32.166-.522 64.814-18.89 91.933-18.37 27.119-46.201 45.462-78.367 51.65-39.755 7.647-80.69-4.814-109.505-33.327-3.218-3.178-8.42-3.148-11.596.06-1.541 1.559-2.384 3.62-2.373 5.814.01 2.19.875 4.246 2.432 5.787 26.253 25.973 61.01 40.277 97.873 40.276 8.789 0 17.627-.843 26.268-2.505 36.469-7.015 68.022-27.811 88.847-58.557 20.825-30.75 28.43-67.765 21.416-104.23" transform="translate(28 156.787)"/>
            <path d="M184.56 138.236c-3.068 3.322-2.86 8.521.461 11.585 1.61 1.487 3.687 2.256 5.893 2.172 2.19-.089 4.213-1.025 5.696-2.635l30.204-32.732c8.666-8.803 8.613-23.049-.134-31.796-8.8-8.795-23.122-8.795-31.969.05l-64.764 70.952-34.71-39.03c-.134-.15-.27-.297-.379-.403-8.804-8.799-23.125-8.799-31.923.002-8.733 8.731-8.794 22.964-.154 31.773L113.556 204c.084.097.171.193.352.38 4.266 4.26 9.935 6.606 15.961 6.606s11.695-2.346 16.016-6.665l33.81-36.63c1.484-1.61 2.253-3.702 2.165-5.89-.089-2.189-1.024-4.21-2.629-5.692-1.609-1.49-3.73-2.26-5.89-2.173-2.189.088-4.215 1.024-5.7 2.634l-33.498 36.3c-1.154 1.107-2.67 1.717-4.274 1.717-1.596 0-3.104-.604-4.256-1.702l-50.818-55.877c-.087-.094-.173-.184-.264-.275-2.407-2.409-2.407-6.328-.002-8.733 2.354-2.352 6.185-2.405 8.6-.134l40.611 45.665c1.54 1.732 3.753 2.735 6.13 2.752 2.296 0 4.503-.974 6.055-2.672l70.534-77.283c2.413-2.3 6.263-2.264 8.627.1 2.408 2.408 2.41 6.327.002 8.735l-30.528 33.074z" transform="translate(28 156.787)"/>
        </g>
    </g>
</svg>
