<svg xmlns="http://www.w3.org/2000/svg" xmlns:xlink="http://www.w3.org/1999/xlink" width="38" height="48" viewBox="0 0 38 48">
    <defs>
        <path id="prefix__a" d="M0 1.098L37.761 1.098 37.761 43.02 0 43.02z"/>
        <path id="prefix__c" d="M0.003 0.705L23.262 0.705 23.262 21.631 0.003 21.631z"/>
    </defs>
    <g fill="none" fill-rule="evenodd" transform="translate(.215 -.477)">
        <path fill="#00ECC5" d="M6.83 41.42s.854-5.961 1.77-7.928c.914-1.966 1.646-1.585 1.646-1.585v9.767s-.488.507-1.646.444c-1.16-.063-1.77-.698-1.77-.698M19.354 46.794c0-1.532.344-9.703 1.587-12.384 1.242-2.682 2.312-3.672 2.312-3.672l.655 15.865s-.69 1.212-2.14 1.212c-1.448 0-2.414-1.021-2.414-1.021M33.3 28.085s1.564-1.377.995-2.515c-.568-1.14-2.418-2.8-2.418-2.8s3.698 1.898 4.22 2.942c.521 1.044 1.375 14.238 1.469 15.283.095 1.044-1.943 1.28-2.75 1.044-.805-.238-1.896-1.852-2.038-3.987-.142-2.136-.426-8.827-.426-8.827l.947-1.14zM10.246 22.152s5.409-1.791 5.599-6.978c.187-5.187-2.014-9.447-2.014-9.447l4.717-1.173 3.083 15.992-10.378 2.223-1.007-.617zM5.692 6.83s1.164 0 3.917-1.942c2.754-1.944 2.204-2.611 2.204-2.611l4.774.111.49 2L5.692 6.83z"/>
        <mask id="prefix__b" fill="#fff">
            <use xlink:href="#prefix__a"/>
        </mask>
        <path fill="#172733" d="M6.614 11.945c.286.997 1.614 5.806 2.548 8.663.598 1.833 3.273 1.122 10.2-.118 1.08-.194-.545-9.334-1.06-12.896-.365-2.512-1.633-1.554-3.529-1.154-1.896.4-6.855 1.889-8.09 2.153-1.236.264-1.485-1.495-.567-1.719.877-.212 7.602-1.924 10.387-2.42.556-.1.51-.398.472-.535-.149-.537-.476-.85-1.052-.838-3.215.062-11.215 2.061-12.492 2.5-1.08.37-1.188 1.286-.98 2.315.21 1.03 4.247 16.013 4.47 20.358.224 4.346.217 9.483.214 11.686 0 .497.132 1.092.654 1.259.364.115.957.049 1.211-.19.22-.207.141-.769.132-1.172-.059-2.548 0-9.267.69-9.316.688-.049 1.077 7.172.964 10.155-.038 1.024-.298 1.932-2.472 2.02-2.176.086-2.738-.996-2.758-1.77-.127-5.08-.005-11.824-.853-16.26C3.854 20.228 1.49 12.196.167 8.168-.208 7.028.076 5.74.726 4.971c.59-.7 1.84-.93 2.846-1.18 3.197-.798 6.391-1.652 9.636-2.197 1.86-.313 3.953-1.156 5.657.484 1 .96.615 2.347.79 3.565.493 3.436 1.095 6.856 1.578 10.293.142 1.02.49 4.017.847 4.751 3.958-.328 8.788-.165 13.42 3.554 1.99 1.599 1.992 11.4 2.12 13.834.129 2.43.498 4.71-.897 4.844-1.394.132-2.316.243-3.213-.409-.881-.64-1.14-3.931-1.136-4.91 0-.21.02-.66.376-.561.478.135.963.358 1.015 1.01.068.848.133 1.703.314 2.53.181.821.921.669 1.507.629.655-.045.684-.632.661-1.078-.173-3.384-.41-6.764-.574-10.149-.065-1.328.383-2.941-.492-3.892-1.628-1.767-3.91-2.69-6.206-3.382-4.193-1.264-9.29-.565-11.712.067-2.424.632-5.384 1.109-6.818 1.24-1.436.13-2.41-.926-2.773-1.99-.364-1.066-1.88-6.944-2.165-8.581-.347-2 .821-2.496 1.107-1.498" mask="url(#prefix__b)"/>
        <g transform="translate(11.385 26.185)">
            <mask id="prefix__d" fill="#fff">
                <use xlink:href="#prefix__c"/>
            </mask>
            <path fill="#172733" d="M22.592.721c.674-.195 1.034 1.381.126 2.083-.616.474-.79 1.136-.756 2.115.033.978-.056 4.132-.522 3.904-.544-.268-.587-2.088-.652-3.556-.066-1.468-.131-2.414-.947-2.252-.815.164-5.031 1.22-7.274 1.734-.73.169-.653 1.888-.588 5.738.066 3.848.505 7.693.144 9.441-.281 1.364-1.793 1.695-3.135 1.703-1.912.01-2.367-1.25-2.442-2.863-.145-3.059-.137-6.032-.375-9.158-.238-3.126-1.684-4.555-4.322-5.403-.493-.158-1.93-.485-1.843-.996.087-.511 4.067.098 6.275 1.142 2.207 1.044 1.837 11.716 1.848 12.886.012 1.173-.085 2.149.47 2.504.65.415 1.227.303 1.683-.024.457-.326.408-.75.417-1.957.008-1.207-1.406-13.029.328-13.953C12.762 2.886 21.918.917 22.592.72" mask="url(#prefix__d)"/>
        </g>
        <path fill="#172733" d="M29.678 18.385c-.204-.552-.082-2.27 1.267-2.431.962-.116 2.132.427 2.068 1.62-.044.86-.677 1.622-1.612 1.767-.648.1-1.52-.403-1.723-.956M.007 36.781c.048-.952.596-1.363 1.217-1.473.824-.144 1.073.715 1.052 1.44-.029.988-.557 1.962-1.395 1.96-.745-.004-.921-.976-.874-1.927M26.166 13.697c.085.593-.123 1.15-.613 1.1-.394-.042-.483-.771-.505-1.28-.018-.382.123-1.117.526-.976.259.09.507.563.592 1.156M26.537 17.108c.59-.216 1.064.753.488 1.08-.085.05-.323.028-.403-.033-.438-.339-.675-.83-.085-1.047M1.725 33.015c-.429-.003-.65-.741-.57-1.328.034-.26.212-.932.52-.948.308-.017.445.633.547 1.016.17.633-.069 1.263-.497 1.26"/>
    </g>
</svg>
