<svg xmlns="http://www.w3.org/2000/svg" xmlns:xlink="http://www.w3.org/1999/xlink" width="33" height="35" viewBox="0 0 33 35">
    <defs>
        <path id="prefix__a" d="M0 0.566L32.028 0.566 32.028 15.168 0 15.168z"/>
        <path id="prefix__c" d="M0.319 0.103L3.362 0.103 3.362 3.375 0.319 3.375z"/>
    </defs>
    <g fill="none" fill-rule="evenodd">
        <path fill="#00ECC5" d="M21.34 11.985c.413.059 2.924 1.037 3.986-1.576 1.063-2.613-.796-6.482-.796-6.482s3.307-1.576 4.251-1.168c.946.41 2.658 3.855 2.126 6.715-.532 2.861.236 5.488-3.898 5.372-4.133-.117-8.15-1.985-8.15-1.985s-2.185.526-3.78.35c-1.594-.175-3.602-.992-4.843-.467-1.24.526-5.846 1.985-6.85 1.868-1.004-.117-3.174-3.368-1.713-3.152 2.776.408 5.495-.055 5.936-2.956C8.14 5 6.398 3.403 6.398 3.403l4.961 2.277-.59 5.837s3.779 1.197 5.284-.933c1.507-2.131-.382-5.138-.382-5.138s2.775-.059 3.544.818c.767.875.648 5.079.648 5.079l1.477.642z" transform="translate(0 -1)"/>
        <g transform="translate(0 -1) translate(0 .56)">
            <mask id="prefix__b" fill="#fff">
                <use xlink:href="#prefix__a"/>
            </mask>
            <path fill="#172733" d="M16.643 5.778c-1.277-.09-2.47.004-3.623.555-.688.33-.741 1.27-.689 1.905.02.225.117.32.295.329.758.032 1.517.064 2.275.058.412-.003.462.269.301.467-.508.624-1.105 1.132-2.02 1.046-.362-.034-.604.123-.465.56.68 1.445 4.205 1.156 5.376.869.583-.142 1.017-.803 1.076-2.611.06-1.807-.438-3.033-2.526-3.178m-12.474 6.6c1.052-.193 4.89-.927 6.07-1.637.439-.264.126-1.024.205-2.268.096-1.517.764-2.268.104-2.727-1.68-1.159-4.414-2.465-5.643-2.927-1.23-.464-2.285-.628-2.437 4.486-.153 5.116.648 5.268 1.7 5.073M29.587 7.97c.109-4.073-.467-5.042-1.978-4.77-1.512.273-5.287 2.148-6.207 2.562-.921.415-.42 1.386-.48 2.529-.061 1.144-.356 2.167-.002 2.392 1.377 1.252 5.354 2.296 6.708 1.874 1.354-.423 1.848-.514 1.959-4.587M.353 2.81C.803.476 3.47.14 6.016.993c3.646 1.218 5.296 3.392 5.973 3.135.676-.257 1.82-.642 3.828-.59 2.008.053 3.143.586 3.815.846.438.17 4.905-2.986 7.903-3.356 3-.37 4.53.377 4.493 6.744-.037 6.369-1.69 6.867-3.696 7.18-2.288.356-7.315-1.51-8.047-1.776-.647-.235-2.007.53-4.526.496-2.52-.036-3.951-.531-4.393-.567-1.469-.123-2.866.556-4.217 1.017-1.467.5-5.925 2.493-6.632-.846C-.189 9.936-.1 5.146.353 2.81" mask="url(#prefix__b)"/>
        </g>
        <g transform="translate(0 -1) translate(13.655 32.06)">
            <mask id="prefix__d" fill="#fff">
                <use xlink:href="#prefix__c"/>
            </mask>
            <path fill="#172733" d="M3.351 2.156c-.094.903-.716 1.319-1.459 1.2-.631-.102-1.41-.421-1.55-1.359C.201 1.06.715.17 1.82.105 2.927.04 3.447 1.254 3.35 2.156" mask="url(#prefix__d)"/>
        </g>
        <path fill="#172733" d="M14.074 26.473c0-.84.88-1.66 1.716-1.495.835.163 1.149.487 1.17 1.198.03.943-.79 2.036-1.519 1.923-.885-.136-1.513-.631-1.367-1.626M14.016 19.561c.058-1.064.292-1.7 1.126-1.969.836-.266 1.608.41 1.765 1.234.158.826-.223 1.71-1.243 1.895-.678.124-1.887-.068-1.648-1.16" transform="translate(0 -1)"/>
    </g>
</svg>
