<svg xmlns="http://www.w3.org/2000/svg" xmlns:xlink="http://www.w3.org/1999/xlink" width="53" height="27" viewBox="0 0 53 27">
    <defs>
        <path id="prefix__a" d="M0.001 0.498L52.258 0.498 52.258 26.88 0.001 26.88z"/>
    </defs>
    <g fill="none" fill-rule="evenodd">
        <path fill="#00F0C9" d="M24.875 25.932L25.197 20.732 47.469 14.256 50.501 13.663 50.868 17.494 26.346 26.206z" transform="translate(0 -1)"/>
        <g transform="translate(0 -1) translate(0 .622)">
            <path fill="#00F0C9" d="M12.66 22.163s10.378.592 12.445-1.232c2.066-1.824.367 3.512.367 3.512s-.46 1.506-1.791 1.096c-1.33-.411-11.02-3.376-11.02-3.376M19.778 15.55s1.286.881 4.363 1.429c3.077.547 8.556 0 12.92-2.007 4.362-2.007 3.474-4.942 1.591-6.355-1.144-.86-4.591-2.19-4.591-2.19l-2.71 6.614-11.573 2.509z"/>
            <path fill="#00F0C9" d="M33.877 7.659L37.413 6.701 41.362 7.613 41.408 4.831 40.168 3.052 30.478 5.971z"/>
            <mask id="prefix__b" fill="#fff">
                <use xlink:href="#prefix__a"/>
            </mask>
            <path fill="#172733" d="M39.88 3.818c-1.048-.209-3.327.482-3.783.697-.177.083-.447.134-.456.425-.01.298.278.406.436.434 1.513.27 2.643.972 4.153 1.231.518.088.892-.113.828-.937-.087-1.14-.429-1.702-1.179-1.85m-16.856 5.25c.125-.272-.093-.433-.296-.451-.405-.038-.773-.167-1.156-.28-.48-.14-1.038-.389-1.474.002-.425.38-.957.582-1.377.946-.765.667-.769 1.33-.103 1.726 1.714 1.02 3.646 1.037 5.533 1.172 1.448.103 2.865-.373 4.302-.534.759-.084 1.147-.758 1.712-1.132.61-.403.456-1.13-.198-1.291-1.082-.265-1.952-1.014-3.105-1.144-1.162-.13-1.972.375-2.041 1.51-.028.412-.21.764-.64.91-.865.293-1.283-.216-1.157-1.434m3.161 11.306c-.41.144-.5.221-.506.686-.01.974.062 1.94.094 2.91.02.59.211.798.89.686 2.046-.337 21.606-7.285 22.756-7.715 1.15-.43 1.086-.773.996-2.238-.059-.952-1.262-.733-1.815-.555-1.69.546-4.683 1.104-4.751.737-.071-.367 2.996-1.374 4.096-1.695 1.101-.32 2.282-.628 2.194-1.037-.09-.408-4.33-1.944-6.194-2.798-.762-.35-10.31-3.79-10.704-3.801-.393-.012-1.789.278-1.233.42 1.995.507 5.891 2.487 6.083 5.007.19 2.519-6.47 6.637-16.807 5.621-10.337-1.017-11.735-5.15-10.506-7.036 1.647-2.523 6.21-4.004 10.246-4.347 1.55-.131 2.488-.746 3.179-.654.588.08-.451.85-.773.97-.697.258-.905.297-1.817.683-.477.2-.387.901-.092 1.032.624.277 2.304.828 3.045.493.74-.335 2.98-1.585 4.59-2.192 1.607-.607 9.317-2.71 9.99-2.92.23-.073.826-.126.85-.368.022-.21-.143-.345-.329-.475-.715-.498-1.336-.315-2.537-.031-1.202.283-9.178 2.692-10.268 2.94-1.09.25-1.323-.407-.568-.681 1.458-.529 2.52-.976 3.648-1.415 1.711-.668 5.527-1.485 5.88-1.532.986-.132 2.397-.483 2.597-.505.303-.035 1.807-.276 2.586.448.78.723 1.133 3.359 1.228 3.911.116.683.226 1.69.273 2.055.045.365 5.409 1.949 7.625 3.073 2.217 1.126 2.128 2.225 2.128 2.794 0 1.393-.065 3.389-.219 4.12-.154.732-.774 1.262-1.86 1.668-1.085.404-19.01 6.712-20.525 7.149-1.042.299-2.666 1.017-4.536 1.096-1.868.081-9.431-2.644-12.702-3.62-3.268-.975-9.559-3.037-10.54-3.372-.98-.335-1.345-1.655-1.467-2.278-.344-1.75-.228-3.54-.402-5.304-.048-.475.196-1.105.726-1.367s14.36-7.01 16.58-7.772c2.221-.76 4.532-1.528 6.926-.797.467.142.862.31.829.457-.103.443-.384.533-.806.47-.569-.085-1.472-.241-4.135.385-2.66.627-8.146 3.24-11.12 4.89-2.973 1.653-5.4 2.59-6.117 2.973-.716.386-.989.626-.994 1.042-.003.415.547.507.754.589 1.36.53 16.799 5.139 18.511 5.787.79.3 2.376 1.977-.307 1.398-2.683-.58-16.326-5.214-18.273-5.545-.606-.103-1.03.321-.97 1.084.027.328-.084 1.474.493 2.11.768.847 2.356 1.196 3.24 1.466 2.059.63 4.13 1.23 6.202 1.796 1.403.382 2.786.865 4.225 1.166 1.044.218 2.085.643 3.13.939 1.426.403 2.87.778 4.285 1.2 1.212.359.96-.297.955-.892-.008-1.028.09-2.045.214-3.063.008-.058 0-.125.024-.176.32-.691 2.318-1.271 3.074-1.065.329.09-.565.75-1.269.995" mask="url(#prefix__b)"/>
            <path fill="#172733" d="M48.644 5.831c.78-.178 1.33.343 1.437 1.118.108.774-.594.95-1.428.61-.834-.341-.788-1.55-.009-1.728M45.35 5.256c.455.063.906.3.984.735.04.225-.371.585-.751.616-.412.034-.87-.085-.874-.55-.002-.301.008-.854.641-.8M4.179 5.167c.149-.794 1.301-.998 1.875-.802.575.196.662.652.648.845-.057.897-.861 1.22-1.5 1.36-.546.12-1.171-.609-1.023-1.403M31.302 18.492c-.07-.432 1.257-.864 2.36-1.27 1.102-.404 3.117-.682 3.182-.419.066.264-1.054.612-2.231 1.05-1.18.44-3.241 1.07-3.311.64M40.184 15.41c.157-.108.232.024.284.113.027.047-.015.159-.058.217-.377.516-.957.573-1.527.647-.15.02-.256-.05-.106-.198.397-.39.76-.845 1.407-.778M29.32 18.654c.73-.175 1.2.084.944.333-.259.251-1.36.57-1.715.347-.356-.224.041-.507.77-.68M9.481 4.51c.01.282-.56.793-.873.606-.314-.187-.522-1.214.096-1.358.618-.143.766.472.777.753"/>
        </g>
    </g>
</svg>
