<svg xmlns="http://www.w3.org/2000/svg" xmlns:xlink="http://www.w3.org/1999/xlink" width="41" height="42" viewBox="0 0 41 42">
    <defs>
        <path id="prefix__a" d="M0 0.125L40.633 0.125 40.633 38.338 0 38.338z"/>
        <path id="prefix__c" d="M0.231 0.59L1.621 0.59 1.621 2.15 0.231 2.15z"/>
    </defs>
    <g fill="none" fill-rule="evenodd">
        <path fill="#FFF" d="M19.097 4.3c.05 1.889-1.147 3.575-3.592 5.057-3.667 2.223-.726 2.334-3.58 4.075-2.854 1.74-8.22 5.867-9.271 5.867-1.051 0-1.41 1.96-1.41 4.581 0 2.621-.878 7.865 1.41 9.3 2.287 1.435 16.497 6.531 18.718 6.531s17.837-6.53 17.837-6.53l-.886-11.176c-2.116-1.419-4.626-3.203-7.531-5.35-4.358-3.223-5.037-8.223-7.229-10.289-1.46-1.377-2.95-2.066-4.466-2.066z" transform="translate(0 -1)"/>
        <path fill="#00F0C9" d="M26.405 8.222s-2.997.465-4.949-.829c-.414-.275 2.73-1.249 2.73-1.249l2.22 2.078zM29.052 12.955s-.481 1.514-4.692.835c-4.212-.68-5.481-2.864-5.481-2.864l6.163-.452 4.01 2.48zM11.54 21.702c-2.227-.54-3.383-2.208-4.124-2.723-1.15-.8 1.343-1.7 2.44-2.313.659-.367 1.824 3.859 9.196 3.518 7.373-.342 9.84-2.451 10.534-3.57.696-1.12 3.786.052 5.396.426 1.61.373 3.183.693 3.547 1.917.362 1.226 2.737 2.77 0 3.57-2.74.8-15.893 3.517-18.567 3.517-1.744 0-4.037-3.277-8.422-4.342z" transform="translate(0 -1)"/>
        <path fill="#00F0C9" d="M4.027 25.897c.875.16.44.64 1.282.72.843.079 1.485-.52 2.809-.16 1.323.36 3.6 2.757 6.132 3.476 2.53.719 3.132-.595 4.214-.157 1.083.436 2.086 1.195 2.607.957.522-.241 2.206-1.37 3.41-1.345 1.202.026 3.168.653 3.889 0 .722-.654 2.888-2.213 4.05-2.252 1.164-.04 4.252-.2 4.813-.92.561-.719 1.484-.319 1.685.8.2 1.12-.641 2.266-1.685 2.372-1.042.105-2.726-.288-3.328.208-.602.497-3.369 2.334-4.653 2.574-1.283.24-2.406-.32-3.569 0-1.163.32-2.987 1.638-4.08 1.519-1.093-.12-2.778-1.239-4.022-1.12-1.242.121-3.368.964-5.172.203-1.805-.761-2.968-2.833-4.332-2.996-1.363-.163-3.288.306-4.05-.388s-.876-3.651 0-3.49" transform="translate(0 -1)"/>
        <g transform="translate(0 -1) translate(0 .95)">
            <mask id="prefix__b" fill="#fff">
                <use xlink:href="#prefix__a"/>
            </mask>
            <path fill="#172733" d="M35.302 27.712c1.41.055 2.475.075 2.709-1.559.014-.1 0-.247-.063-.306-.046-.043-.204.002-.296.043-.574.253-1.13.556-1.72.764-1.234.439-2.726-.406-3.795.448-1.873 1.494-3.837 2.543-6.286 2.115-1.56-.272-3.421.354-3.703 1.372-.281 1.019.157 1.522.942 1.06.785-.462 2.78-1.79 4.567-1.382.89.205 1.755.42 2.748-.249 1.52-1.023 3.487-2.36 4.897-2.306m-8.703 4.015c-1.603-.408-2.9 1.534-4.465 1.905-.391.094-.71.945-.416 1.614.154.35.373.138.553.08 4.888-1.584 9.782-3.15 14.65-4.792.749-.253 1.852-.739 1.558-1.662-.208-.655-.697.318-2.147.372-.935.034-1.997.039-2.745.482-2.284 1.35-4.561 2.622-6.988 2.001m6.276-10.349c2.122-.403 4.907-.08 4.827-1.5-.04-.709-.144-2.405-1.807-2.614-1.228-.152-2.498-.35-3.626-.821-1.488-.623-1.62.464-4.157 1.82-2.536 1.355-8.685 2.268-13.115 1.547-2.39-.39-4.824-1.596-5.79-4.32-.092-.265-.212-.574-.663-.405-1.721.648-3.454 1.39-4.357 1.83-.817.399-1.594.346-1.577 1.198.012.65 1.054.676 2.496 1.149.876.287 2.893 1.343 5.766 2.496 1.858.746 3.047-.019 5.72 1.246 2.674 1.264 5.177 1.62 7.802.612 2.061-.79 6.36-1.834 8.481-2.238M5.818 29.344c-1.177.013-1.95-.294-2.299-.823-.35-.53-.352-1 .03-1.149.485-.19.866 1.066 2.296.92 2.19-.224 3.707.213 5.229 1.83 1.174 1.245 2.601 1.557 4.334 1.105 1.415-.37 2.93-.551 4.361.25.25.14.787.728 1.055.091.315-.751-1.725-2.176-2.739-1.908-2.804.74-5.131-.22-7.29-1.919-1.22-.959-2.489-2.065-4.18-1.52-1.349.434-2.544-.327-3.052-.966-.506-.64-.121-1.856.51-1.058.632.799 1.419.932 2.325.699 1.413-.364 2.594.202 3.679.97 1.507 1.064 2.887 2.493 4.838 2.507 1.507.011 3.112-.73 4.49.143 1.131.72 2.321.358 3.046-.031 1.402-.75 2.715-.743 4.177-.669 1.657.085 2.827-1.187 4.197-1.857 1.923-.939 4.224.095 5.98-1.315.446-.359 1.144-.751.942-1.385-.192-.596-.867-.528-1.247-.438-1.354.32-9.81 2.934-12.742 3.699-.967.253-1.87.766-3.796.636-.824-.056-3.035-1.26-5.616-2.208-3.444-1.265-7.547-2.442-9.892-3.39-2.754-1.112-2.761-1.099-2.756 1.803.001.398.071.798.063 1.197-.106 4.976-.136 5.05 3.341 6.372 4.197 1.594 8.435 3.088 12.69 4.523.734.247 1.744.97 2.375.208.405-.49.49-1.676.163-2.217-.39-.647-1.328-1.092-2.244-1.028-2.742.193-5.599 1.075-7.905-1.274-1.414-1.437-1.838-1.827-4.363-1.798m15.537-11.041c.508-.068 1.737-.195 2.951-.41.749-.132 1.495-.346 2.207-.616 1.55-.588 2.728-1.718 2.514-3.384-.282-2.188-2.226-3.66-3.994-3.344-4.042.72-6.417-.272-6.333-.739.085-.466 3.932.027 5.655-1.112.511-.34 1.098-.71 1.37-1.215.217-.404-.26-.899-.653-1.202-.513-.397-.923-.177-2.016.114-1.092.291-1.92.069-1.626-.13 2.726-2.41-1.46-4.137-1.467-3.632-.028 2.484-1.717 3.449-3.608 4.374-.516.252-1.633.46-.883 1.566.814 1.2-.186 1.886-.96 2.093-1.956.522-3.34 1.73-3.614 3.546-.272 1.806 1.663 2.305 2.92 3.051 2.114 1.25 4.495.951 7.537 1.04m18.668 2.104c.124 3.375-.002 6.263.563 9.645.297 1.769-.894 2.074-2.01 2.43-3.267 1.036-6.465 2.284-9.716 3.372-2.617.877-5.642 2.091-7.755 2.467-2.114.377-17.265-5.734-18.73-6.413-1.464-.68-2.133-1.93-2.259-3.262-.28-2.973.05-5.467-.072-8.853-.122-3.388 1.534-3.782 5.232-5.464 1.5-.681 3.349-1.192 3.994-2.325.652-1.145 1.956-2.062 3.46-2.741.77-.348.18-1.134.32-1.738.248-1.069.9-1.272 1.965-1.718.852-.356 1.682-.64 2.446-1.14.777-.505.965-1.519.261-2.796S18.6.017 19.641.141c1.343.16 4.03.411 4.814 2.935.46 1.485 1.663 1.401 2.445 2.38.782.979.942 2.915.476 3.488 2.746.98 2.725 2.774 3.628 4.31.904 1.539 4.98 1.957 6.524 2.393 1.544.438 2.017 1.538 2.313 2.89.133.607.126 1.246.182 1.87" mask="url(#prefix__b)"/>
        </g>
        <path fill="#172733" d="M37.04 11.692c.877 0 1.122.708 1.127 1.375.006.842-.72 1.04-1.445 1.091-.698.05-1.15-.321-1.115-.966.042-.778.556-1.5 1.433-1.5M9.71 39.797c0-.565.579-1.09 1.502-1.097.465-.002.957.272.949.876-.014 1.016-1.22 1.385-1.588 1.307-.368-.078-.862-.521-.862-1.086M3.742 14.082c-.701.077-1.104-.564-1.065-1.128.039-.564.316-1.127.9-1.133.584-.005 1.585 2.104.165 2.26" transform="translate(0 -1)"/>
        <g transform="translate(0 -1) translate(16.184 40.725)">
            <mask id="prefix__d" fill="#fff">
                <use xlink:href="#prefix__c"/>
            </mask>
            <path fill="#172733" d="M.835.597c.33.112.777.303.785.859.007.421-.35.698-.714.694-.71-.007-.548-.669-.656-1.089C.17.75.345.551.835.597" mask="url(#prefix__d)"/>
        </g>
        <path fill="#172733" d="M34.637 8.413c.618.11.378 2.137-.498 1.78-.875-.357-.12-1.892.498-1.78" transform="translate(0 -1)"/>
    </g>
</svg>
