<svg xmlns="http://www.w3.org/2000/svg" width="34" height="34" viewBox="0 0 34 34">
    <path fill="#FFF" fill-rule="evenodd" d="M33.993 11.621c.073.611-.451 1.129-1.069 1.129h-.578l-9.084 10.087c.047.18.106.345.106.538v8.5c0 1.175-.95 2.125-2.125 2.125h-8.5c-1.175 0-2.125-.95-2.125-2.125v-8.5c0-.193.06-.365.107-.538L1.647 12.75h-.578c-.61 0-1.135-.525-1.062-1.129C.61 6.607 5.213 2.836 10.519 1.082 8.102 3.7 6.375 7.762 6.375 12.75H4.51l7.743 8.6c.166-.04.319-.1.498-.1h3.188v-8.5H8.5C8.5 5.1 13.075 0 17 0s8.5 5.1 8.5 12.75h-7.438v8.5h3.188c.18 0 .332.06.498.1l7.743-8.6h-1.866c0-4.987-1.727-9.051-4.144-11.668 5.306 1.747 9.908 5.519 10.512 10.54z"/>
</svg>
