<svg xmlns="http://www.w3.org/2000/svg" width="99" height="115" viewBox="0 0 99 115">
    <g fill="none">
        <g>
            <path fill="#C3D1E5" d="M0 24.905L49.5 0 99 24.905 99 28.195 49.5 53.1 0 28.273z"/>
            <path fill="#8FA5C1" d="M0 25.2L49.5 49.774 99 25.2 99 74.426 49.345 99 0 74.426z"/>
            <path fill="#ABBBD2" d="M49.5 98.923L49.5 49.671 0.309 25.2 0 25.2 0 74.374 49.345 99z"/>
            <path fill="#ECF3FE" d="M19.8 14.876L69.158 39.6 79.2 34.624 29.687 9.9z"/>
            <path fill="#C3D1E5" d="M69.3 39.261l9.9-5.061v15.816l-2.665-.475-2.818 3.559-4.417-.316V39.26zM22.555 63.498L6.17 55.068c-.91-.47-1.669.077-1.669 1.248v11.32c0 1.17.759 2.498 1.669 2.966l16.462 8.43c.91.47 1.669-.077 1.669-1.248V66.386c-.076-1.17-.835-2.42-1.745-2.888zm-3.717 9.29L8.368 67.4c-.454-.234-.834-.936-.834-1.561 0-.625.38-.937.835-.703l10.469 5.387c.455.234.834.936.834 1.561 0 .625-.38.937-.834.703zm1.517-3.904L8.369 62.64c-.455-.234-.835-.937-.835-1.561 0-.625.38-.937.835-.703l11.986 6.245c.455.235.834.937.834 1.562 0 .702-.379.936-.834.702z"/>
        </g>
        <g>
            <path fill="#4F5B6B" d="M28.45 0c15.693 0 28.451 12.758 28.451 28.45 0 15.693-12.758 28.451-28.45 28.451C12.758 56.901 0 44.187 0 28.451 0 12.758 12.758 0 28.45 0z" transform="translate(20 58)"/>
            <path fill="#ECF3FE" d="M28.45 4.89c13.026 0 23.561 10.536 23.561 23.56 0 13.025-10.536 23.561-23.56 23.561-13.025 0-23.561-10.536-23.561-23.56C4.89 15.426 15.426 4.89 28.45 4.89z" transform="translate(20 58)"/>
            <path fill="#C8D3E2" d="M27.561 25.783c1.956 0 3.557 1.6 3.557 3.557 0 1.956-1.6 3.556-3.557 3.556-1.956 0-3.556-1.6-3.556-3.556s1.6-3.557 3.556-3.557z" transform="translate(20 58)"/>
            <path fill="#4F5B6B" d="M28.45 27.562h14.226c.489 0 .889.4.889.889s-.4.889-.89.889H28.452c-.49 0-.89-.4-.89-.89 0-.488.4-.888.89-.888zm-6.045-7.513l7.335 7.335c.667.667.667 1.689 0 2.356-.667.667-1.69.667-2.356 0l-7.335-7.335c-.667-.667-.667-1.69 0-2.356.622-.667 1.689-.667 2.356 0z" transform="translate(20 58)"/>
            <path fill="#FFF" d="M28.45 24.894c1.957 0 3.557 1.6 3.557 3.557 0 1.956-1.6 3.556-3.556 3.556s-3.557-1.6-3.557-3.556 1.6-3.557 3.557-3.557z" transform="translate(20 58)"/>
            <path fill="#4F5B6B" d="M28.45 26.673c.979 0 1.779.8 1.779 1.778s-.8 1.778-1.778 1.778-1.779-.8-1.779-1.778.8-1.778 1.779-1.778z" transform="translate(20 58)"/>
            <path fill="#C8D3E2" d="M28.45 4.89c-6.979 0-13.202 3.023-17.514 7.824 4.178-3.734 9.69-6.046 15.737-6.046 13.025 0 23.56 10.536 23.56 23.56 0 6.046-2.267 11.559-6.046 15.737 4.801-4.312 7.824-10.535 7.824-17.514 0-13.025-10.536-23.561-23.56-23.561z" transform="translate(20 58)"/>
        </g>
    </g>
</svg>
