<svg xmlns="http://www.w3.org/2000/svg" width="17" height="17" viewBox="0 0 17 17">
    <path fill="#222B36" fill-rule="evenodd" d="M8.5 0C13.196 0 17 3.804 17 8.5S13.196 17 8.5 17 0 13.196 0 8.5 3.804 0 8.5 0zm0 15.355c3.787 0 6.855-3.068 6.855-6.855 0-3.787-3.068-6.855-6.855-6.855-3.787 0-6.855 3.068-6.855 6.855 0 3.787 3.068 6.855 6.855 6.855zm2.118-3.578l-2.91-2.115c-.106-.079-.168-.202-.168-.333V3.702c0-.227.185-.412.412-.412h1.096c.227 0 .412.185.412.412v4.856l2.29 1.666c.184.134.222.39.088.576l-.644.887c-.134.182-.39.223-.576.09z"/>
</svg>
