<svg xmlns="http://www.w3.org/2000/svg" xmlns:xlink="http://www.w3.org/1999/xlink" width="49" height="55" viewBox="0 0 49 55">
    <defs>
        <path id="prefix__a" d="M0.966 1.048L34.55 1.048 34.55 44.261 0.966 44.261z"/>
        <path id="prefix__c" d="M0.585 0.774L3.228 0.774 3.228 9.095 0.585 9.095z"/>
    </defs>
    <g fill="none" fill-rule="evenodd">
        <path fill="#00F0C9" d="M16.4 42.31s8.647-2.938 12.859-11.294-.417-16.967-.139-17.867c.278-.901 9.537.773 11.296 14.52 1.76 13.745-9.968 16.06-14.937 16.06-4.97 0-9.08-1.418-9.08-1.418" transform="rotate(1 57.78 55.2)"/>
        <g transform="rotate(1 57.78 55.2) translate(6.82 .089)">
            <mask id="prefix__b" fill="#fff">
                <use xlink:href="#prefix__a"/>
            </mask>
            <path fill="#172733" d="M8.838 38.79c-.582-.02-1.002.1-.761.54.24.438.898.895 1.261.994.243.065-.304-1.528-.5-1.534M29.06 19.863c-.02.528-.147.96.579.858.726-.102.712-.286.616-.729-.108-.495-.487-1.368-.812-1.38-.325-.011-.365.721-.383 1.25M18.249 12.1c-1.4-.048-3.283.364-3.272.681.014.346 6.157.56 6.172.155.014-.407-1.498-.787-2.9-.836m7.524 4.116c.73-.073 1.258.143 1.396-.522.078-.372-1.13-1.208-1.597-1.214-.502-.006-.686.204-.607.666.08.46.077 1.144.808 1.07m.136 18.674c.149-1.173.036-1.373-.821-1.542-.665-.131-.669.366-.825 1.355-.156.99-.016 1.287.63 1.402.646.116.867-.042 1.016-1.215m-8.786-19.038c-.048-.379-.056-.979-.468-1.144-.411-.165-1.366-.261-1.863-.157-.496.104-.569.45-.64.971-.072.521.123.887 1.157.944 1.036.058 1.921.228 1.814-.614m7.823 9.06c.07.563.691.518 1.403.588.711.072 1.051-.132 1.105-.793.056-.696.15-1.218.049-1.836-.07-.428-2.038-.256-2.342-.036-.304.221-.286 1.514-.215 2.077m1.255-3.79c1.298-.024 1.565-.06 1.714-1.515.073-.706.104-1.188-.085-1.672-.16-.406-.732-.128-1.683-.022-.535.06-.713.12-.778.66-.065.54-.038 1.054-.026 1.584.01.515-.024.982.858.965M29.83 36.74c.609-.694.671-1.105.797-1.638.123-.533-.631-.885-1.062-1.008-1.055-.3-1.515-.39-1.76.241-.418 1.068-.43 1.56-.23 1.94.203.38 1.775 1.01 2.255.465M17.28 20.257c.05-.407.15-1.797-.454-1.993-.802-.26-1.644-.172-2.462-.105-.165.012-.402.082-.476.333-.19.648-.092 1.326.083 1.943.124.434.941.372 1.774.425.83.05 1.465-.01 1.535-.603m2.167-3.628c1.1-.01 2.137.1 3.18-.3.842-.321.835-.808.691-1.434-.123-.53-.732-.31-1.134-.225-.845.18-1.899.22-2.63.232-.73.012-.774 1.733-.107 1.727m12.232 8.553c-.006-.591.012-1.803-.33-2.594-.194-.447-.716-.095-2.113.109-.575.083-.551 1.27-.602 1.788-.055.536.01.973.568 1.097.524.117 1.132.346 1.696.603.696.317.79-.41.781-1.003M7.206 37.854c.577-.18 1.16-.313 1.013-1.36-.054-.374-.213-1.078-.336-1.68-.122-.601-.252-1.068-1.23-.815-.687.179-1.994.715-1.75 1.312.244.597.675 1.212.814 1.42.402.605.911 1.304 1.489 1.123M20.83 22.472c-.895-.032-1.069.394-1.138.954-.069.56-.007 1.808.515 1.83.521.02 1.67.073 2.455.008.567-.047.654-.088.696-.686.038-.562.08-1.665-.467-1.87-.55-.204-1.532-.217-2.061-.236m-3.382 2.223c.03-.59.028-1.034-.075-1.625-.104-.591.003-.644-.854-.643-.719 0-1.513-.027-2.232-.112-.468-.056-.594.065-.635.398-.081.672-.081 1.355-.105 2.034-.01.283.628.359 1.68.334 1.05-.025 2.191.204 2.22-.386m4.61-3.615c1.363.048 1.714-.385 1.73-1.257.016-.756.04-1.892-.89-1.646-.962.253-3.108.053-3.47.257-.363.203-.383 1.674-.063 2.237.32.562 1.33.362 2.693.41m-9.967 8.46c-.11-1.791.2-2.389-.967-2.396-.421-.002-.892.01-1.391.095-.5.086-.722.434-.65.955.104.743.102 1.314.227 2.228.111.816.189 1.251 1.106 1.138 1.91-.1 1.77-.445 1.675-2.02M5.5 26.579c.864-.193 1.46-.142 1.552-1.366.06-.795.188-1.539.343-2.481.13-.792-.27-.675-1.135-.704-.86-.03-1.571-.295-1.9.681-.49 1.466-.878 2.563-.82 3.6.038.681 1.341.409 1.96.27m11.59.393c-.99-.192-1.942-.115-2.679-.042-.694.067-.79.405-.829.946-.056.828.155 1.797.215 2.387.062.59.088.83.748.86.841.04 1.362.012 2.2-.02.28-.012.734-.069.742-.488.008-.421.513-3.465-.398-3.643m-11.079.925c-.708.078-1.637.392-2.27.603-.632.21-.557 2.044.225 4.202.29.799 1.281.278 2.243-.18.52-.246 1.273-.562 1.2-1.206-.107-.925-.27-1.915-.275-2.673-.004-.757-.416-.825-1.123-.746m6.62 6.108c-.078-.59-.126-.91-1.566-.76-1.902.195-1.54 1.056-1.265 2.51.275 1.453.958 1.388 1.123 1.985.165.596-.366.94-.042 1.88.323.944 2.395 2.068 2.783 2.13.637.103.7 0 .605-.326-.431-1.478-1.054-3.002-1.638-7.42m8.026-6.985c-.85.001-.577 1.565-.586 3.914-.009 2.35-.095 3.92.027 4.283.163.478 2.034.814 2.389.373.378-.471.656-2.402.03-2.568-.294-.078-.443-.167-.459-.452-.017-.3.222-.365.437-.391.375-.046.626-.053.672-.333.143-.897.336-3.415.246-4.208-.076-.674-1.344-.621-2.756-.618m10.94 1.623c-.235-.667-1.223-.77-2.658-1.077-1.434-.307-3.58-.68-3.612.257-.104 2.963-.378 3.49-.302 4.045.077.555 1.25.112 1.41-.674.106-.521.157-1.056.283-1.573.096-.391.458-.435.816-.395.23.027.585.055.571.32-.034.63-.177 2.296.158 2.663.337.368 1.168.432 1.946.69.779.256 1.213.185 1.44-.988.227-1.173.184-2.6-.052-3.268M8.932 25.034c.013.595.302.71.83.579.376-.093.782-.1 1.154-.203.331-.09.684.104.673-.376-.061-2.901.186-4.26.371-6.45.051-.608-.467-.466-.939-.597-.87-.24-1.662-.53-1.556-.897.133-.463.404-.452 1.167-.35.764.101 1.559-.098 1.597-1.204.04-1.107.09-1.357-.177-1.273-.972.306-1.834.813-2.633 1.395-1.46 1.063-2.967 3.107-3.139 3.574-.171.467-.252.852-.03.925 1.355.444 3.235.047 3.036 1.662-.199 1.616-.37 2.62-.354 3.215m19.585 13.451c.227-.315-.44-.493-1.14-.565-.72-.073-2.22 2.573-2.593 2.378-.396-.207-.214-.57-.131-.866.12-.43.281-.847.421-1.272.079-.239.239-.57-.165-.627-.436-.06-1.173-.337-1.258.21-.13.836-1.01 2.845-1.4 2.8-.387-.048-.278-.775-.236-1.616.042-.841-.314-1.462-.897-1.548-.583-.087-1.341-.143-1.386.264-.142 1.323-.407 3.473-.916 3.43-.51-.044-.576-2.212-.67-3.197-.043-.431-.114-.556-.306-.555-2.307.018-1.911-.84-1.235-1.082.675-.241 1.253-.29 1.272-.908.026-.815-.042-1.438-.168-2.131-.125-.695-1.509-.437-2.352-.355-.844.081-1.331.354-1.263 1.192.243 3.004 1.356 7.988 2.737 8.119 6.748.64 10.614-2.194 11.686-3.671m6.018-9.558c-.238 7.536-4.894 15.224-16.058 15.333-9.826.096-17.284-5.493-17.504-15.182C.7 17.175 8.996 12.01 15.633 10.498c.87-.2 1.045-.985 1.048-1.636.006-1.048.032-7.783.664-7.815.633-.03.734 8.042.917 8.645.184.602 1.282.66 2.84 1.025 11.292 2.649 13.664 10.93 13.433 18.21" mask="url(#prefix__b)"/>
        </g>
        <path fill="#172733" d="M43.76 21.9c-.006-.124.16-.158.573-.333.413-.177 2.95-.307 3.112-.032.163.274-.046.407-.422.515-.378.109-3.256-.01-3.263-.15M5.397 21.32c-1.711-.098-3.45-.095-5.104-.68-.525-.184-.345-.895.549-.883.894.014 2.072.31 3.29.733 1.217.424 2.107.878 1.265.83" transform="rotate(1 57.78 55.2)"/>
        <g transform="rotate(1 57.78 55.2) translate(29.557 45.562)">
            <mask id="prefix__d" fill="#fff">
                <use xlink:href="#prefix__c"/>
            </mask>
            <path fill="#172733" d="M2.367 9.03C1.545 8.748 1.096 4.806.829 3.388.564 1.967.47.874.779.777 1.086.68 1.926 2.904 2.33 4.042c.405 1.138 1.003 3.565.881 4.2-.122.634-.206 1.012-.845.79" mask="url(#prefix__d)"/>
        </g>
        <path fill="#172733" d="M42.822 19.932c-.18-.295 3.207-2.27 4.055-2.47.848-.201.961.42.47.818-.8.648-4.345 1.948-4.525 1.652M6.58 19.071c.125-.377-1.573-3.336-4.415-4.832-.42-.22-.841-.075-1.052.275-.215.36.01.675.387.919 1.01.653 1.797 1.23 2.913 2.158 1.118.927 2.026 1.904 2.167 1.48M27.66 48.774c-.146.877-.222 1.268-.498 1.834-.286.584-.904.268-.878-.36.055-1.262.777-3.345 1.116-3.27.34.076.407.92.26 1.796M35.164 44.939c.9-.051.987.73.829 1.265-.155.523-.329 1.047-1.124.897-.964-.18-.604-2.11.295-2.162" transform="rotate(1 57.78 55.2)"/>
    </g>
</svg>
