<svg xmlns="http://www.w3.org/2000/svg" xmlns:xlink="http://www.w3.org/1999/xlink" width="39" height="40" viewBox="0 0 39 40">
    <defs>
        <path id="prefix__a" d="M0 0.585L33.962 0.585 33.962 39.846 0 39.846z"/>
    </defs>
    <g fill="none" fill-rule="evenodd">
        <path fill="#00ECC5" d="M32.666 10.649c-.702-1.533-11.552-7.276-11.552-7.276s.893 1.978 2.106 3.318c.63.696 1.878 2.389 2.933 3.857l-7.847-3.41-.384 3.447s6.191 3.957 6.128 5.17c-.065 1.212-.51 7.276-.894 9.574-.383 2.297-3.128 4.85-4.084 4.85-.959 0-2.171-5.041-2.171-5.041l-.064 9.062.602 1.487c-.954.658-1.826 1.176-2.39 1.322-1.977.51-7.722-4.34-7.722-4.34s5.808 6.702 9.638 6.893c3.83.191 11.425-7.978 12.701-9.957 1.277-1.979 3.703-17.424 3-18.956" transform="translate(.492 -1.062)"/>
        <g transform="translate(.492 -1.062) translate(0 .553)">
            <mask id="prefix__b" fill="#fff">
                <use xlink:href="#prefix__a"/>
            </mask>
            <path fill="#172733" d="M29.613 24.114c1.191-8.102 2.8-12.807.834-14.058-1.965-1.25-3.741-2.486-4.824-3.097-2.428-1.37-6.711-3.812-8.756-3.812-2.046 0-6.597 3.004-9.292 4.467-1.244.676-3.113 1.656-4.23 2.482-1.662 1.228-.559 5.229.912 13.584s7.135 11.58 8.8 12.916c1.665 1.336 4.405 1.574 6.61-.033 2.202-1.609 8.755-4.348 9.946-12.45M.645 9.384C1.771 7.678 4.1 6.522 7.674 4.536 11.248 2.55 13.809.585 16.985.585c3.178 0 3.924 1.188 7.288 2.8 3.364 1.612 6.194 3.535 8.775 5.758 2.58 2.223-1.052 14.792-1.767 17.65-.715 2.86-2.025 5.66-4.05 7.328-2.026 1.667-4.23 3.216-6.315 4.466-2.084 1.251-5.463 1.815-7.831.53-2.266-1.229-4.508-2.66-6.386-4.405-2.129-1.981-3.738-5.778-4.426-8.632C1.242 21.79-1.142 12.08.645 9.382" mask="url(#prefix__b)"/>
        </g>
        <path fill="#172733" d="M3.863 38.115c.351-.551 1.025-.746 1.625-.571.421.122.768.708.538 1.294-.294.75-.946 1.374-1.658 1.198-.764-.19-.854-1.371-.505-1.921M36.132 12.453c.063-.63.455-1.107 1.177-1.172.634-.058.608.684.577 1.006-.052.546-.245 1.287-.887 1.355-.398.04-.93-.558-.867-1.19M2.73 35.284c-.684.17-1.06-.413-.996-.836.063-.425.974-1.213 1.328-.82.354.393.354 1.488-.331 1.656M36.76 9.224c.045.27-.375 1.141-.81 1.072-.437-.069-.566-.46-.567-.714 0-.256.368-.639.899-.714.11-.017.434.088.479.356M17.194 22.345c-.267-.032-.508-.567-.744-2.384-.237-1.818-.41-9.385-.832-10.777-.395-1.302-1.524-.506-1.968-.302-.803.37-1.34.536-1.668-.12-.328-.655 1.895-1.654 3.128-2.501 1.231-.847 2.488-.678 3.4-.342 1.99.735 3.907 1.757 5.921 2.813 2.013 1.057 4.646 2.979 4.884 4.051.238 1.073-.55 6.403-1.072 9.56-.522 3.158-1.09 4.72-1.995 6.404-1.056 1.962-6.146 6.306-7.893 7.058-1.276.549-2.055.595-2.174-1.55-.119-2.143.009-9.956.659-9.952.652.006 1.014 6.023 1.02 8.535.002.913.377.852 2.134-.608 1.756-1.458 4.983-4.132 5.45-7.713.466-3.58 1.836-10.066 1.37-11.168-.467-1.102-5.31-4.162-7.168-4.844-.373-.137-1.121-.206-1.29 1.33-.17 1.535-.503 8.448-.537 9.857-.043 1.838-.549 2.662-.625 2.653M10.761 9.477c.537.537-.772 1.402-1.19 1.639-1.347.757-2.652 1.617-3.008 2.055-.358.436.032 1.905.148 2.739.517 3.702 1.479 7.436 1.876 9.74.397 2.302 1.788 4.138 3.416 5.607 1.627 1.47 2.088 2.507 1.905 2.82-.183.312-2.663-.996-4.903-3.38-2.116-2.248-2.51-4.808-2.92-7.023-.41-2.217-2.263-10.087-1.568-11.317.54-.958 2.117-1.52 3.117-2.046.864-.455 2.591-1.37 3.127-.834" transform="translate(.492 -1.062)"/>
    </g>
</svg>
