<svg xmlns="http://www.w3.org/2000/svg" xmlns:xlink="http://www.w3.org/1999/xlink" width="38" height="32" viewBox="0 0 38 32">
    <defs>
        <path id="prefix__a" d="M0 0.452L37.492 0.452 37.492 27.381 0 27.381z"/>
        <path id="prefix__c" d="M0.178 0.058L2.169 0.058 2.169 2.286 0.178 2.286z"/>
    </defs>
    <g fill="none" fill-rule="evenodd">
        <path fill="#00F0C9" d="M16.698 19.794c.086-1.604 1.476-3.405 3.213-3.36 1.736.042 3.255 1.944 3.255 1.944s-1.751 2.301-4.478 3.625c-2.728 1.323-2.078-.606-1.99-2.21M16.568 30.804s11.216-1.185 12.774-5.495c1.899-5.257-.098-14.564 3.462-16.2 3.56-1.638 3.646 7.822 3.646 10.847 0 3.026.088 10.005-3.125 10.35-3.213.346-16.757.498-16.757.498"/>
        <g transform="translate(0 4.49)">
            <mask id="prefix__b" fill="#fff">
                <use xlink:href="#prefix__a"/>
            </mask>
            <path fill="#172733" d="M15.265.483c2.478-.158 10.496.329 12.026.394 2.505.106 6.625.167 8.267 3.553 1.641 3.387 1.963 7.436 1.933 11.27-.021 2.758-.334 5.795-.726 7.95-.39 2.154-1.445 2.898-3.703 3.443-2.257.546-15.624.148-16.147.149-.522 0-1.357-.088-1.338-.629.016-.442.122-.91.933-1.083.81-.173 5.318-.725 10.846-.725 5.527 0 6.467-1.042 6.787-2.706.38-1.97.273-3.952.354-5.933.11-2.673-.102-5.402-.608-8.015-.45-2.322-1.65-3.532-4.384-4.394-1.649-.519-5.066-.718-10.361-.803-4.074-.067-8.914.085-12.33.889-3.415.804-3.864 6.694-3.85 9.66.016 2.965.083 9.528.84 10.699.847 1.305 1.926 1.627 1.956 2.027.056.77-1.433 1.344-3.341-.11C.511 24.667.132 20.957.075 19.51c-.093-2.32-.04-4.647-.07-6.969-.034-2.423.134-4.855 1.21-7.162.967-2.072 2.259-3.24 4.24-3.719C8.64.89 12.01.63 15.264.483" mask="url(#prefix__b)"/>
        </g>
        <path fill="#172733" d="M14.844 15.617c.019.547.192 2.32.206 3.857.013 1.536-.054 3.086 1.032 2.648.8-.323 3.714-1.886 5.284-2.741 1.076-.584 1.076-1.16.15-1.857-1.185-.892-1.975-1.067-3.925-1.871-1.951-.805-2.766-.582-2.747-.036m-2.219.287c-.17-2.755 1.82-3.478 3.73-2.8 2.478.88 5.015 2.106 6.907 3.056 1.89.951 1.983 2.877.319 4.13-1.663 1.253-4.627 3.099-7.04 3.991-2.009.74-3.329.53-3.472-1.01-.144-1.54-.272-4.611-.444-7.367"/>
        <g transform="translate(8.06 29.632)">
            <mask id="prefix__d" fill="#fff">
                <use xlink:href="#prefix__c"/>
            </mask>
            <path fill="#172733" d="M.674 2.243C.16 2.053-.099.49.624.163c.72-.329 1.538.148 1.545.976.008.828-.98 1.295-1.495 1.104" mask="url(#prefix__d)"/>
        </g>
        <path fill="#172733" d="M26.719.821c.235-.446 1-.934 1.552-.797.553.137.837.457.577.992-.26.535-.673 1.866-1.823 1.293-.728-.362-.541-1.04-.306-1.488M32.122 1.983c.182.533.129 1.1-.432 1.252-.372.101-.844-.182-1.025-.683-.242-.668.2-.947.676-1.147.516-.216.67.18.781.578"/>
    </g>
</svg>
