<svg xmlns="http://www.w3.org/2000/svg" xmlns:xlink="http://www.w3.org/1999/xlink" width="39" height="46" viewBox="0 0 39 46">
    <defs>
        <path id="prefix__a" d="M0 0.238L35.339 0.238 35.339 45.853 0 45.853z"/>
        <path id="prefix__c" d="M0.758 0.214L2.927 0.214 2.927 2.688 0.758 2.688z"/>
    </defs>
    <g fill="none" fill-rule="evenodd">
        <path fill="#00ECC5" d="M6.964 38.234L19.452 44.895 21.259 41.534 4.908 35.371z" transform="translate(0 -1)"/>
        <g transform="translate(0 -1) translate(0 .908)">
            <path fill="#00ECC5" d="M24.061 41.278s2.803-.14 3.784-3.128c.787-2.4.326-3.407.326-3.407s-.883.075-1.868-.094c-1.635-.28-1.308-2.613-1.308-2.613s3.363.793 3.644.092c.28-.7.701-19.046.701-19.046s1.12-.934 2.802-.794 2.897.7 2.663 2.568c-.233 1.868-1.744 19.855-2.18 22.657-.436 2.801-1.122 5.602-2.491 5.726-1.37.125-6.073-1.96-6.073-1.96M12.01 30.79s-.064 2.429 2.117 2.614c1.556.133 3.488-.497 3.737-2.613.249-2.117-.187-11.951-.187-11.951l-2.243.808.5 10.52s-.873 1.12-1.932 1.058c-1.059-.062-1.993-.435-1.993-.435M24.901 13.875s.701-5.275 1.636-7.048c.934-1.775 2.71-3.97 2.336-4.715-.374-.748-1.542-1.121-2.243.185-.7 1.308-2.381 3.41-2.428 5.417-.047 2.006.7 6.161.7 6.161M17.989 11.448S20.37 9.02 20.23 8.134c-.14-.888.047-5.555-.513-5.93-.56-.373-.56 1.587-.56 2.195 0 .606-1.168 7.049-1.168 7.049M15.994 9.362s-.622.125-.762-.435-.794-7.235-.794-7.235 1.215.746 1.54 1.586c.328.84.016 6.084.016 6.084M12.876 8.983s-1.1.224-1.428-.99c-.326-1.213-1.262-6.162-1.262-6.162s1.356.514 1.636 1.307c.28.793 1.054 5.845 1.054 5.845"/>
            <mask id="prefix__b" fill="#fff">
                <use xlink:href="#prefix__a"/>
            </mask>
            <path fill="#172733" d="M28.51 15.076c-.019-3.697-.046-7.394-.096-11.09-.008-.615.064-1.543-.47-1.735-.3-.078-.906.657-1.245 1.158-2.413 3.568-1.959 7.392-.934 11.22.663 2.473 1.543 4.898.77 7.495-.827 2.778-1.174 5.612-1.055 8.502.044 1.06 1.086 1.024 1.624 1.042.54.018 1.058-.06 1.056-.815-.01-2.7.366-13.22.35-15.777M6.6 35.842c1.459 1.365 2.754 2.585 4.058 3.797 1.4 1.3 2.755 2.656 4.228 3.869 1.145.942 2.325.781 3.263-.428.457-.588 1.322-1.337 1.738-1.156.418.183.151.893.024 1.216-.127.323-.65 1.447-1.535 2.02-2.069 1.337-4.145.64-5.83-1.23-2.201-2.446-4.764-4.562-7.089-6.9-1.711-1.721-3.448-3.457-4.882-5.4-1.343-1.819-.222-4.728 2.22-6.336 1.7-1.12 3.47-2.137 5.219-3.185.457-.274 1.166-.702 1.44-.142.379.78-.621 1-1.058 1.392-2.01 1.81-4.657 2.792-6.393 4.981-1.096 1.385-.644 2.865 1.381 3.91 2.556 1.318 5.187 2.45 7.854 3.548 4.504 1.854 9.15 3.308 13.634 5.198 1.597.674 4.33 1.46 5.044 1.228.714-.234 1.12-1.95 1.318-2.856 1.33-6.09 1.03-12.384 2.233-18.509.44-2.236.502-5.819.455-6.867-.045-1.05-1.463-1.064-2.419-.944-1.448.185-1.678 1.189-1.669 2.47.029 3.528-.17 14.269-.442 16.092-.093.615-.448 1.357-1.632 1.415-1.184.058-3.01.378-3.582-1.339-.757-2.27.32-5.64.59-8.393.319-3.225-.257-6.266-.77-9.354-.525-3.172-.791-6.322.535-9.35.556-1.268 1.233-2.563 2.155-3.572 1.534-1.675 2.932-.35 3.052 1.156.12 1.505.238 7.978.296 9.45.02.494.373.436.714.364 4.105-.877 4.691.16 4.576 3.39-.176 4.972-.998 9.92-1.203 14.891-.144 3.48-.791 8.292-1.325 11.14-.533 2.848-2.296 3.54-6.193 2.055-3.377-1.286-6.698-2.741-10.132-3.853-2.725-.884-5.257-2.169-7.896-3.225-.556-.222-1.162-.323-1.978-.543" mask="url(#prefix__b)"/>
            <path fill="#172733" d="M14.432 2.086c-.807.028-.45 2.91-.682 4.452-.233 1.543-.379 2.387-.873 2.445-.496.059-.67-.99-.904-2.358-.233-1.367-.858-4.173-1.623-4.11-.765.065-.282 5.016.454 7.306.442 1.372 1.297 1.846 1.966 3.024 1.101 1.938.64 4.168.552 6.314-.086 2.146-1.115 7.482-1.115 9.093 0 1.61.98 2.222 1.601 2.241.622.02 1.604-.087 1.516-2.067-.088-1.98-.576-8.913-.543-10.914.029-1.904-.048-3.885 1.63-5.374.919-.817 1.78-1.776 2.412-2.824 1.067-1.764 1.104-6.836.098-6.892-1.005-.055-.947 3.272-1.442 4.815-.494 1.542-.984 2.17-1.486 2.124-.488-.043-.203-1.63-.232-2.823-.03-1.193-.52-4.48-1.329-4.452m-1.635 2.703c.167-1.336.021-3.898 1.331-4.13 1.313-.233 1.79.596 2.322 3.03.275-.715.52-1.3.726-1.898.29-.845.948-1.056 1.705-.91.663.128 1.3.488 1.483 1.19.526 2.012.656 4.127.4 6.13-.239 1.86-1.87 3.186-3.22 4.412-1.148 1.042-1.647 2.789-1.608 3.706.037.916-.053 2.23.116 2.152 1.01-.464 2.64-1.12 3.512-1.874.48-.414 1.285-.24 1.451.309.203.671-.523 1.124-1.04 1.454-.873.557-1.824.993-2.731 1.496-1.096.609-.905 1.591-.823 2.61.094 1.169.285 5.253.272 6.097-.011.652-.087 1.767-.428 2.211-1.173 1.53-2.735 1.247-4.37.418-2.277-1.155-1.246-3.092-1.024-4.767.414-3.13 2.296-10.514.462-13.163-1.582-2.283-2.534-3.58-2.738-6.52-.204-2.94.442-5.452 1.42-5.711 1.314-.347 1.771.527 2.13 1.462.303.79.468 1.633.652 2.296"/>
            <g transform="translate(35.559 32.098)">
                <mask id="prefix__d" fill="#fff">
                    <use xlink:href="#prefix__c"/>
                </mask>
                <path fill="#172733" d="M2.927 1.559c-.028.668-.408 1.192-1.044 1.123-.782-.085-1.12-.768-1.125-1.48-.004-.535.289-1.024.97-.985.874.048 1.225.672 1.199 1.342" mask="url(#prefix__d)"/>
            </g>
            <path fill="#172733" d="M7.925 18.821c-.327.027-.786-.218-.742-.638.047-.474.318-.994.847-1.022.451-.023.691.47.7.87.013.545-.399.842-.805.79M35.5 37.625c0-.324.028-.875.573-.851.642.029.693.533.737.894.033.265-.061.83-.549.78-.507-.05-.76-.5-.762-.823M5.8 20.8c-.02.418-.206.7-.615.685-.403-.016-.697-.255-.687-.697.01-.444.133-.806.558-.84.423-.035.764.435.743.852"/>
        </g>
    </g>
</svg>
